<svg xmlns="http://www.w3.org/2000/svg" xmlns:xlink="http://www.w3.org/1999/xlink" width="45" height="45" viewBox="0 0 45 45">
    <defs>
        <path id="pcsal7ug7a" d="M0.069 0.037L10.283 0.037 10.283 3.555 0.069 3.555z"/>
        <path id="ify3og9idc" d="M0.1 0.01L16.741 0.01 16.741 6.314 0.1 6.314z"/>
    </defs>
    <g fill="none" fill-rule="evenodd">
        <g>
            <g>
                <g>
                    <g opacity=".5">
                        <path fill="#FF4405" d="M6.525 13.87c-.148.14-.124.388-.564.345l.286-.257.278-.088m-.42.691c-.002.005-.006.005-.008.009l.01-.006c.04-.002.06.017.092.024.19-.3.387-.596.587-.89-.066-.038-.134-.073-.201-.11-.105.06-.19.131-.221.238-.098.067-.203.13-.318.183-.087.132-.176.263-.26.396.123.024.233.069.319.156" transform="translate(-15 -15) rotate(-30 51.316 13.75) rotate(-12 48.786 1.271)"/>
                        <path fill="#FF4405" d="M5.874 14.15c-.047.038-.112.035-.178.03l-.066.14c.056-.006.112-.012.163.019.017.01.02.026.03.04.028-.058.055-.116.084-.173-.006-.02-.01-.042-.033-.057M4.686 18.048c.059.013.117.068.175 0-.003-.048.022-.061.077-.038.01.014.01.026.012.04.005-.038.008-.074-.026-.108-.035-.024-.078-.028-.122-.03-.033.002-.057-.011-.082-.021l-.04.164.006-.007M7.046 13.698c.066-.036.202-.008.207-.1-.05-.058-.128.002-.187-.018-.035-.012-.067-.008-.1-.01.053.01.1.027.135.057.019.036-.018.054-.055.071" transform="translate(-15 -15) rotate(-30 51.316 13.75) rotate(-12 48.786 1.271)"/>
                        <path fill="#FF4405" d="M9.329 35.96c.42.413.863.8 1.319 1.172.025-.02.042-.045.075-.06.17-.069.302-.08.425-.045-.35-.275-.69-.564-1.02-.864-.155.004-.302.037-.445.082v-.09c-.068-.033-.023-.094-.059-.134-.113-.003-.135-.077-.177-.135.053-.008.122.042.156-.005.036-.052-.023-.077-.086-.083-.108-.01-.194-.031-.128-.136.032-.025.071-.03.114-.025l.016.005c.003-.01.015-.015.021-.024-2.424-2.408-4.18-5.486-4.969-8.931l-.217-.047c-.574-2.555-.613-5.274-.02-8 .07-.32.148-.637.233-.95v-.001c.255-.93.577-1.825.96-2.681l-.136-.015c.008-.15.045-.293.166-.417.068-.07.05-.097.004-.11-.628 1.31-1.106 2.69-1.42 4.133-.587 2.695-.58 5.415.02 8.084.784 3.5 2.55 6.63 4.986 9.094.096.012.185.043.257.107.015.045-.029.061-.075.077" transform="translate(-15 -15) rotate(-30 51.316 13.75) rotate(-12 48.786 1.271)"/>
                        <path fill="#FF4405" d="M5.517 23.46c-.013.002-.024-.001-.035-.004.037.013.037.004.035.005M6.2 23.169c.033-.084-.062-.105-.115-.146.003.003.002.005.005.007.037.026.092.04.086.09-.023.048-.074.08-.116.117l-.054.053c-.115.106-.114.196-.005.27.005-.012.002-.03.01-.042-.074-.08-.102-.16.031-.239.06-.03.132-.05.157-.11M6.106 23.64c.049.055.097.113.131.193-.018-.086-.072-.146-.127-.203 0 .003-.002.006-.004.01M6.728 13.6c.07-.017.145-.026.223-.031-.077 0-.151.01-.223.03" transform="translate(-15 -15) rotate(-30 51.316 13.75) rotate(-12 48.786 1.271)"/>
                        <path fill="#FF4405" d="M24.144 25.192c.046-.181-.22-.164-.293-.269v-.09c.037-.025.078-.045.128-.05.12.003.232.016.224.14l.059.134c-.045.02-.057.053-.059.09.016.042-.008.054-.06.045m-.128 1.997c-.082.006-.174-.017-.238.045-.074.046-.116.09 0 .136-.054.143-.2.142-.352.134-.119-.052-.236.072-.354 0-.16.076-.448-.02-.492.215-.007.04-.06.02-.093.014-.166-.032-.018-.126-.062-.182l.177-.137c.036-.002.082.004.06-.045-.002-.037-.014-.07-.06-.09l.001-.044c.086.006.162-.015.236-.045.036-.028.052-.054-.006-.078-.021-.01-.039-.022-.053-.038-.043-.056-.056-.113-.011-.172.031-.038.077-.058.135-.064.192-.017.14.158.264.195.055.067-.026.138.009.204.072-.01.012-.044.022-.064-.007-.04-.008-.08.005-.12.017-.031.045-.053.09-.06.058 0 .107.017.15.047.047.027.013.101.101.106l.53-.044c.03.049-.027.063-.06.087m-.222.745l-.07-.024.13-.068c.066.063-.021.068-.06.092m-.294.808c-.002-.037-.014-.07-.058-.09l.114-.09c.044.05.113.045.179.045-.075.048-.123.125-.235.135m-.178-.629c-.085-.001-.179.015-.252-.008-.14-.044-.119-.095.019-.127-.015.172.163.05.235.09.017.015.017.03-.002.045m-.28.756c-.112.033-.215.026-.306-.037h-.002c-.056-.07-.184-.036-.252-.127-.08-.106.033-.092.092-.139-.168.008-.298-.025-.368-.139-.015-.067.044-.067.103-.068.055.01.102.037.157.045.137.018.292-.023.403.075-.014.126-.046.253.19.291.063.01.049.07-.017.1m-1.19-7.904l.062-.088c.068-.04.135-.08.213-.109.085.003.164.033.25.033.061.005.123.001.183-.003.157-.023.333-.01.432-.138.033-.02.07-.031.113-.027.122.06.106.12.017.183.129-.02.28-.055.343.098.007.047-.02.08-.07.104-.011.004-.024.002-.037.003.034.006.07.004.1.02.059.034.125.06.175.103.009.02.01.039.004.059-.028.05-.076.084-.14.106-.147-.007-.238.07-.34.13-.138-.03-.277-.058-.422-.067-.085.006-.161-.015-.235-.045-.073-.012-.11-.066-.175-.088.046-.057.15-.068.173-.138-.022-.051.01-.084.065-.108.151.042.295.105.464.101.019-.001.007.04.042.019.013-.024.034-.04.061-.055.029-.01.054-.028.08-.041-.043.01-.086.028-.131.027-.149-.024-.292-.068-.448-.058-.064-.002-.13.017-.189-.018-.196-.088-.394.04-.59-.003m.04 1.909c-.019.04-.047.073-.099.092-.04.009-.078.004-.11-.019-.196.108-.353.243-.476.402-.037-.01-.063-.028-.079-.056.006-.069-.07-.124-.055-.194.012-.028.076-.04.07-.05-.02-.034-.058-.008-.087 0-.036.01-.07.015-.107.012-.052-.028-.12-.001-.171-.03-.012-.017-.018-.036-.018-.056.02-.08.092-.13.188-.144.171-.026.17-.105.126-.205.001-.002.003-.002.005-.003-.027-.027-.064-.037-.106-.038-.056.013-.071-.006-.06-.045.237.035.214-.168.352-.224h.118c.032.029.058.06.066.098-.004.087-.023.165-.161.168.047.02.091.042.12.078.113.16.249-.022.37.014.197.014.146.11.113.2m-.977.341l-.118-.001c.003-.087.1-.102.175-.135 0 .05.008.102-.057.136m-.137.126c-.054.034-.141.045-.216.008-.022-.015-.02-.03-.001-.045.078-.008.051-.137.177-.09-.028.052.108.084.04.127M20.5 19.35h.117c.16-.014.254.065.297.158.027.059-.063.095-.15.094-.059-.013-.095-.05-.146-.072.039-.09-.205-.072-.118-.18m-.176 2.92c-.039.044-.078.044-.117 0 .06-.074-.113-.148-.001-.224.05-.12.068-.244.06-.371-.005-.093-.04-.16-.176-.168l.058-.09c-.066-.033-.058-.086-.059-.135h.058c.048.001.092.01.118.045-.075.002-.114.033-.117.09.045-.047.125-.011.175-.044.153.033.124.102.06.178-.088.045-.019.09 0 .135.176.207.094.397-.059.584m-.174 7.056c-.075.01.038.242-.178.089l.058-.135c.08-.062.159-.061.237.001-.027.034-.07.043-.117.045m-.388-7.623c-.022-.024.04-.066.063-.051.112.073.376-.018.356.148.011.107-.04.16-.107.144-.152-.036-.226-.148-.312-.241m.093 7.578c-.085.07-.195.035-.295.044.083-.073.195-.036.295-.044m-.12-.098c.022.024.022.053-.057.096h-.06c-.114-.097-.202-.113-.233.045-.02.008-.042.011-.065.014.074.03.16.027.24-.013.104.019.287-.043.235.135-.118-.007-.204.026-.25.113-.079.147-.208.193-.397.111-.057-.03-.057-.06 0-.09.045-.02.172-.009.06-.09l-.295.09-.06-.087c.033-.005.084-.006.074-.04-.015-.047-.078-.047-.131-.052-.039-.085-.014-.123.101-.093.043-.022.09-.04.075-.087V29.1c.038-.027.077-.023.115 0 .11.042.154-.042.23-.062.004-.006.012-.009.013-.017.151.106.41-.044.55.146-.05.014-.097.013-.145.017M18.5 16.79c-.007.032-.03.054-.07.067-.04.007-.077.002-.106-.024-.154-.088.042-.087.058-.132.075-.028.176-.08.229-.028.062.063-.095.063-.111.117m-.235 11.098c-.131-.046-.366-.06-.119-.224.095.058.202.008.305 0 .004.122-.194.12-.186.224m-.325-.83l-.028.021h-.237c-.032-.025-.059-.06-.097-.074-.053-.019-.156.034-.164-.042-.01-.106.141-.032.218-.11h-.31c.086-.072.3-.02.295-.178.084-.002.144-.03.177-.09l.118.09c.096.086-.099.185.02.271.03.037.032.074.008.112m-.24.515c-.057.032-.127.054-.152.113-.014.017-.032.03-.055.041-.093-.028-.15-.004-.169.071.087.043.083.119.116.181-.313-.07-.12-.27-.175-.405-.176-.082-.152-.188-.06-.301.128-.105.239.042.363.015.025-.002.049.002.071.011.04.027.066.062.084.1.013.03.018.06.016.09-.003.03-.015.059-.038.084m-.847-2.336c-.054-.055-.178-.082-.12-.18.01-.072.048-.133.118-.181l-.028.198c.107 0 .145-.067.207-.107.086.049.122-.016.175-.045.176.087.355-.122.532.002.043.056.182.039.174.133-.225.077-.447.16-.705.135-.039-.05-.031-.076-.005-.094-.093.036-.187.072-.288.095l-.06.044m-.337-1.13c-.17.14-.385-.004-.569.051-.094.004-.173-.013-.21-.088-.066-.033-.06-.086-.06-.136.08-.058.133-.138.235-.18.24-.124-.05-.155-.081-.251.166-.035.28.103.431.069-.01.053-.031.102-.058.149.018-.03.042-.056.09-.057.143-.003.097.131.171.186.03.033.056.068.065.109.004.05.009.1-.014.148m-.134 3.331l-.118.046c-.092-.008-.174-.032-.234-.09.065-.001.133.005.176-.045.021-.015.045-.021.073-.018.06.021.132.036.103.107m-.72-8.538c-.017-.08-.04-.163.075-.18.089-.011.045.133.162.141-.138.116.058.313-.19.42-.068-.134-.024-.26-.048-.381m-.103.677c-.044-.02-.057-.053-.058-.09-.015-.057-.317.03-.117-.136l.177.045c.08.06.08.121-.002.181m0-.315c-.091-.065-.046-.15-.057-.226.094.064.046.15.057.226m-.383-.237c-.192-.06-.252-.159-.145-.303.04-.044.079-.044.118 0 .026.034.012.131.118.045-.04-.075-.08-.15-.118-.225l.114-.045c.007.025.008.063.052.056.063-.011.062-.06.069-.1.117-.031.169-.012.118.088.054.09.137.171.005.27-.083.063-.07.149-.005.225-.025.08.056.22-.177.18.01-.09-.034-.155-.149-.191m.091.316c-.03.036-.045.047-.099.001-.095-.082-.209-.024-.313.009.004-.086.101-.102.176-.136.075.006.156-.011.224.028.049.028.039.065.012.098m-.765-.44c.013-.075-.036-.16.06-.224h.117c-.12.047-.095.16-.177.225m-.176 7.341c-.066 0-.132.01-.198.006-.049-.021-.109-.004-.159-.024-.03-.259.206-.227.416-.223l.235.089c-.02.14-.158.145-.294.152m-.257.87l-.036.012c-.046.002-.059.082-.111.04-.09-.07.07-.11.052-.176l.117.045c.027.032.007.056-.022.079m-.42-1.038c-.017-.095.07-.128.145-.165l.063.001c-.015.087-.065.15-.209.164m-.29-2.787c-.031.085-.17.101-.326.107v-.135c.06-.004.126-.003.165-.022-.015-.024-.032-.047.014-.07l.008.002c-.003-.014 0-.025-.01-.045h.118c.017.03.014.047.022.07l.093.019c-.03-.03-.033-.06.003-.09.049-.05.138-.073.175-.135.135-.242.135-.242.294-.223.015.058.12.051.137.108.01.034-.007.067-.006.1.01.023.03.042.046.062-.136.263-.177.275-.648.179l.083.113c-.08.032-.122-.009-.168-.04m-.561-.378c-.1.022-.196.048-.157.154-.002.032-.014.06-.046.081-.183-.06-.138.062-.17.122.02.017.032.038.024.07-.032.044-.152.039-.116.122-.065.065-.14.12-.248.145-.029.004-.066.005-.096 0-.05.036-.1.071-.14.113-.117.057-.171.207-.368.147-.047-.022-.113-.086-.087-.09.236-.027.182-.188.25-.29-.019.007-.037.013-.053.016-.11.018-.208.078-.325.02-.173-.073-.183.113-.309.114-.17-.014-.147-.092-.086-.17.054-.069.11-.137.163-.206.058-.09.215-.122.237-.234.106-.052.269-.068.233-.216-.148-.006-.257.104-.41.082-.075-.066.049-.162-.058-.224l.235-.09c.11-.06.198.07.307.023.089.02.113.076.136.134.008.05.05.075.113.085.057.024.124.034.173.075-.027-.035-.074-.04-.112-.058-.045-.026-.095-.047-.121-.088-.055-.13.08-.174.184-.231.025-.008.052-.012.08-.012.159 0 .068.188.235.181.055.013.088.041.113.073.13-.015.263-.019.396-.016.044.05.111.043.176.044.019.092-.088.093-.153.124m-.176 5.338c-.025.028-.063.044-.104.054-.07.009-.142.03-.208-.011-.03-.055-.03-.093-.008-.121-.024.013-.046.03-.062.057-.033.056-.129.059-.206.02.02-.08.163-.123.118-.223l.117-.001.235.09.237-.044c.062.1-.034.137-.119.179m-.919-.486c-.014.027-.036.05-.063.071-.096.069-.225.095-.332.152-.024.009-.049.013-.076.014-.041-.006-.072-.023-.097-.048-.012-.018-.018-.038-.019-.058.005-.02.019-.037.04-.05.16-.03.134-.143.171-.227-.018-.022-.019-.045-.001-.067.056-.066.142-.108.19-.187.124-.204.49-.202.667-.01-.002.08-.19.089-.124.194-.001.02-.011.039-.028.055-.104.06-.273.042-.328.16m-.729.215c-.094-.004-.212.028-.234-.088.1.022.2-.04.298.001l-.064.087m-.704-1.706c.026-.044.123-.053.094-.125-.055-.137.086-.064.18-.068-.082-.09-.226-.088-.275-.168.034-.048.028-.078-.051-.097-.065-.015-.055-.051-.006-.08.05-.175.228-.055.34-.088.05 0 .099.005.143.022.073.029.192.029.183.119-.008.089-.127.076-.2.1.042 0 .077-.016.117-.014.027 0 .053.003.079.01.039.016.063.04.068.074 0 .049-.03.107.08.113.066.003.147 0 .148.073 0 .063-.075.08-.14.094-.1.023-.196.062-.304.065-.15-.032-.315.076-.456-.03m-.148.655c-.046.034.002.085-.01.128-.006.01-.013.018-.02.027h-.174c-.147-.01-.134-.166-.241-.212-.056.067-.076.142-.079.22-.002.07-.039.112-.138.11-.135-.067-.288.029-.424-.029l-.003-.044c-.063-.067-.003-.102.061-.136.05-.095.151-.01.224-.036.134-.047.168-.093.094-.145l-.14-.043v-.135c-.03-.127-.153-.162-.295-.179l-.058-.001-.003-.043c.024-.039.085-.022.119-.045.134-.111.256-.061.378.01.053.054.166.075.155.163-.025.02.01-.007-.017.015.04-.035.073-.04.11-.039.04.005.076.018.111.032.106.043.215.08.305.143.104.07.177.14.045.239m-1.205.199c-.14-.094-.077-.163.05-.22.02-.01.082-.015.063.034-.008.02-.034.034-.052.051.063.067 0 .1-.06.135m-.36-7.991c-.143.233-.148.23-.47.15-.053-.013-.117.007-.169-.022-.036-.004-.077-.003-.092-.038.15-.012.114-.178.268-.186.08-.054.341-.012.177-.195.118-.04.248-.054.363-.114.065-.034.145-.07.224-.096.04.043.03.076.006.104.045-.066.085-.137.207-.14-.07-.008-.149.022-.212-.009-.137-.102-.13.131-.256.054-.07-.23.242-.217.374-.323.187-.077.26.007.307.128-.006.066.013.143-.083.173.039.016.073.036.088.072-.069.136-.153.266-.298.366-.082.006-.164-.006-.246-.002-.08.002-.144.008-.187.078m.007 4.89l-.177-.088c.082-.007.104-.039.038-.08-.064-.04-.142-.067-.214-.1.06-.005.13.011.169-.043l.359.224-.175.088m-.456-.222c-.025.012-.05.011-.073-.003-.034-.13-.286-.121-.295-.268-.05-.056.003-.15-.115-.18-.024-.02-.04-.04-.05-.063-.015-.106.045-.159.186-.153.095.017.15.068.187.133.027.092.13.154.172.241 0 .07.015.138.026.207 0 .032-.011.06-.038.086m-.666-6.453h-.176c-.031-.078.08-.123.086-.194-.101-.032-.135.05-.206.058-.026-.034-.068-.041-.115-.043.068-.1.139-.197.118-.315.09-.042.19-.05.292-.046.074.063.05.15.1.218.032.045-.02.097.019.142.045.093-.04.135-.118.18m-.252 7.74l.247-.112c.082.24-.12.132-.247.111m-.082-4.124c-.094.09-.304.002-.367.14-.068.033-.103.118-.243.07l.245-.294c.127-.023.164-.114.233-.181.041-.032.092-.011.139-.016.068-.007.144-.025.173.042.023.05-.026.085-.08.107-.07.03-.071.086-.1.132m-.007 2.083c-.048.038-.11.056-.172.076-.13.041-.24-.018-.36-.04.11.087.131.175.015.268-.002 0 0 .002-.002.003l.162.039c.048.103.222.181.112.317-.092-.05-.244-.044-.279-.148-.046.107.057.195.084.293.008.02.014.04.018.06.017.109-.08.192-.115.29-.057.083-.185-.043-.24.047-.14-.017.081-.226-.169-.185-.178.007-.031.14-.12.181-.047-.001-.09-.01-.117-.044l-.177-.09c-.136-.06.005-.224-.174-.267-.031-.26-.198-.027-.295-.048.079-.118-.047-.252.056-.373.066-.077.08.005.139.024-.006-.096.133-.14.1-.236.074-.044.06-.088 0-.133-.003-.037-.015-.07-.062-.09-.128.027-.193-.017-.213-.11.024-.238.276-.197.47-.225.082-.05.122-.159.271-.115.151.045.055.153.098.225-.024.077-.13.147-.066.233-.041-.084.049-.134.096-.195.042-.072-.103-.155.02-.223.04-.028.113-.036.109-.095-.03-.078-.153-.062-.203-.118-.02-.068.042-.091.105-.115.1-.027.197.028.297.01.094.043.097.117.113.187.001.055-.022.104-.053.152-.034.045-.076.087-.102.135-.005.01-.033.022-.006.031.006.002.03-.015.053-.013.013.013.057-.006.107-.046.069.012.083.062.119.098.029.027.065.047.108.059.107.025.217.045.284.124.005.02.001.04-.011.057m-1.889-.685c.027-.037.054-.07.119-.045.197.052.144.269.352.314-.195.086-.288-.135-.47-.09.003-.06.055-.12 0-.18m-.119.09l-.234-.09c.05-.04.18.011.178-.09.091-.03.147.001.186.063-.087.03-.125.06-.13.118m-.058.36v.044l-.116.044.056-.177c.1-.002.1.036.06.088m-.294-3.505l.118-.09.176.134v.048l-.179.041-.115-.133m-.235-.18c.04-.044.079-.044.118-.045.04-.03.023-.061.002-.092-.017-.034-.065-.069-.027-.102.045-.038.085.006.126.021.043.016.09.026.135.04.032.079.225.076.173.199-.053.042-.119.06-.193.062-.12-.009-.24-.012-.334-.082m.647-.226h.117l.003.048c.033.024.043.055.035.089-.017.033-.042.056-.095.044-.002-.037-.015-.07-.06-.09v-.09m.632 3.564c-.001.018-.022.035-.033.053-.02-.012-.05-.022-.054-.037-.005-.016.015-.036.022-.05.047-.007.067.012.065.034m-.036-.692c-.095-.078-.055-.154-.072-.24.152.076.132.143.072.24m.599-2.301c.05.043.098.089.104.151-.01.033-.029.056-.08.043-.131.008-.157-.089-.233-.136-.045-.02-.092-.036-.062-.086.03-.253.039-.49-.343-.618-.1-.034-.1-.153-.128-.238.233-.037.346.095.44.209.126.153.089-.059.148-.03.087-.006.166-.003.192.078-.053.027-.084.064-.077.115.046-.02.077-.058.129-.073.15.006.22.08.264.178.008.044.017.088.017.132 0 .211-.063.254-.34.231-.042 0-.08.002-.031.044m-.842-1.2c.08-.138.32-.059.412-.18.047-.041.073-.093.117-.135.05-.04.067-.117.176-.09l.019.043h.09c.014-.009.021-.019.025-.03-.029.018-.104-.031-.134-.013.044-.148-.15-.022-.177-.09.07-.053.136-.105.251-.088.115.016.053.087.065.128.003.008 0 .009 0 .016.001-.022.004-.043.03-.058l.177-.09c.002.037.014.07.059.09-.153.218.103.239.275.307-.084.063-.154-.001-.22.008-.017.003-.036.002-.056.002-.085-.002-.082.086-.129.124.04.035.116.03.19.01.084.088.012.18.012.269-.007.05-.057.087-.072.135v.044c-.078.031-.156.044-.233 0l-.061-.045c.08-.066.189-.127.058-.225-.098-.04-.196.06-.294 0h-.057c-.038-.01-.029-.056-.049-.08-.063 0-.133-.017-.179.037-.195-.008-.235.251-.485.15.032-.087.273-.095.19-.24m1.467-2.294c.05.094-.06.126-.117.179l-.236.001c.019-.173.146-.222.353-.18m.353.182c-.024.137-.18.11-.293.135.037-.122.187-.102.293-.136m.516-.758l-.001-.047c.139-.078.247-.017.354.046.052.039.087.086.117.135.026.035.07.044.118.046.032.02.045.047.05.078l.01.055c.031.01.038.032.013.07.005.031.008.062.011.093.051-.019.098-.072.146-.008l-.001.01c.09-.012.094-.07.095-.129.068.122.127.247.292.315.098.143.189.286.092.451-.01.04-.014.083-.029.123-.008.02-.02.039-.035.056-.02.016-.043.027-.068.035-.104.015-.229.01-.224-.084.009-.158-.116-.152-.249-.157-.054-.011-.067-.069-.132-.068l-.117.048c-.143-.016-.123-.097-.11-.169 0-.007.002-.015.004-.022-.028.012-.06.013-.086.033-.082.06-.164.055-.246.001-.018-.016-.028-.034-.033-.054-.018-.106.165-.097.182-.183-.044-.094-.213-.045-.262-.134.1-.083.21-.15.32-.215l.016-.071c0-.01.002-.016.005-.022l.002-.008c-.085-.07-.132-.164-.234-.224m.309 1.39c.076-.026.118-.07.12-.135.063-.035.056-.086.056-.136l.04-.007c.109.054.108.137.103.222-.023.053-.103.06-.142.1h-.176l-.001-.044m1.114.543c.088-.088.183-.093.31-.06.123.03.228.023.164-.114.091-.078.201-.079.302-.068-.119-.068-.325.105-.443-.051.03-.143.216-.17.326-.167.185.004.38-.035.561.027.05.03.08.076.139.098.022.011.04.025.057.04.014.019.018.038.015.059-.042.063-.125.069-.202.084-.098.025-.155.107-.265.117-.036.006-.072.008-.108.008-.015 0-.033-.004-.048-.001-.024.004-.023.012.001.016.043.008.083.016.122.03.023.008.042.02.06.035.031.036.047.073.011.112-.106.09-.249.167-.22.313-.033.063-.107.082-.183.096-.068.013-.138.016-.186-.032-.055-.055.003-.095.036-.142-.097.076-.195.15-.327.189h-.015c-.026.013-.051.027-.068.043-.097.066-.176.143-.253.223-.051.045-.146.033-.194.084H8.8c-.033-.035-.09-.038-.133-.061.02.024.063.032.077.062-.178.175-.354-.03-.531-.001-.116-.06-.054-.148-.058-.225.038-.025.076-.027.115 0l.12-.09c.023-.01.047-.012.072-.003.15.08.179-.072.28-.086l.412-.09c.02-.014.042-.023.064-.032.02-.038.05-.08-.075-.053-.074.017-.148.01-.222.004-.08.035-.142.026-.178-.045.148-.032.2-.124.237-.225.104-.017.22-.025.288-.094m1.214-3.25c.039-.053.1-.086.167-.113.18-.074.24-.045.276.133.04.092-.01.145-.126.17l-.293.09v-.044c-.002-.08-.062-.155-.024-.236m.378 8.683l-.358.222-.055-.133c.018-.077.127-.051.177-.091.06-.043.128-.053.205-.023l.03.025c-.047-.04-.106-.075-.06-.136l.236.045-.175.09m-.707-1.393c.153.074.255-.137.412-.044-.113.15-.262.1-.412.044m-.295 3.954c-.008-.103.036-.15.175-.093.088.105.23.21.003.316-.204-.007-.27-.078-.178-.223m-.526-2.386c-.014-.03-.061-.06.003-.088.092-.097.176-.197.25-.303.063-.079.101-.187.273-.144.294.118-.046.12-.057.181.024.032.019.058.004.083.027-.01.058-.014.11.003.068.01.186-.006.157.08-.014.041-.045.084-.086.121.018.023.033.048.05.071-.049 0-.076-.019-.1-.04-.014.008-.023.022-.04.027-.058.016-.08-.028-.046-.067.015-.018.014-.026.02-.037l-.011-.016c.008 0 .01.006.016.007.023-.061-.077-.042-.13-.053-.026.087-.046.157-.063.224h-.214c-.054-.003-.106-.007-.136-.049m.644-.939l-.176.045c-.004-.014-.005-.03-.013-.043-.045-.08-.218.084-.205-.05.01-.115.176-.07.276-.087.039.046.125.067.118.135m.413-2.02l.057-.003c.058.026.118.05.139.12-.112-.002-.24.033-.196-.118m-1.177-1.754c.128-.007.24-.003.176.136-.114-.004-.134-.079-.176-.136m.388 1.328c.027.008.05.02.068.037.032.035.048.074.043.118-.014.044-.032.089.038.118.058.021.073.143.18.044l.021.005c.118-.057.253-.018.378-.03.042.047.018.097.007.146-.007.108.117.105.197.134.054.02.117.03.111.087-.006.052-.065.068-.122.083-.105.028-.243-.007-.31.095-.028.036-.075.057-.116.082-.117.066-.233.067-.349.002-.024.022-.044.034-.064.04-.088.015-.173.017-.239-.042l.006-.045c.045-.02.055-.053.057-.089v-.09c.098-.046.187.003.279.016.006 0 .01.003.017.004v-.005c-.132-.04-.26-.096-.412-.06-.048-.001-.092-.01-.12-.045-.045-.072.184-.092.06-.18-.017-.024-.04-.07-.05-.069-.264.045-.085-.062-.068-.113-.014-.08.057-.134.108-.193.085-.043.179-.06.28-.05m-.48 5.158c.113.02.096.132.21.12.103.23-.08.168-.235.135.033-.08.042-.164.024-.255m1.27-1.184l.115-.18c.134.057.17-.025.208-.091.063-.109.157-.088.261-.045-.094.213-.264.346-.583.316m.411.81c-.075-.003-.115-.033-.12-.09v-.044l.177.089c.014.01.02.02.017.033-.032.029-.054.028-.074.012m1.292 2.246c.016-.057.086-.086.117-.135.144-.033.299-.046.412-.134.035.044.036.09 0 .134-.182.032-.265.292-.53.135m.413.943c-.12.007-.26-.075-.355.045-.06-.096.007-.127.12-.135.045-.02.056-.052.058-.088.013-.01.025-.014.038-.011.014.003.02.006.02.009.002.037.015.07.06.09.032.026.095.039.059.09m.02-.68c-.024.02-.05.022-.08.007-.153.11-.366.012-.528.09-.074-.031-.15-.052-.236-.045-.088-.094-.022-.13.09-.105.263.058.501.018.734-.075l.176-.18c.085.096.041.141-.176.18.051.039.052.082.02.128m-1.371-2.325c.058.043.063.094.052.146.036.059.061.124.181.119l.006.004c-.014-.028-.033-.06-.044-.085.118-.068.24-.12.38-.032.074.086.04.198.116.283-.011.15.058.237.279.215.096-.01.178.052.276.044l.068-.016c.075.16.077.333.2.494-.176.011-.121-.152-.258-.133-.05-.01-.08.01-.105.04-.018.072-.03.147-.133.183-.228.083-.162-.057-.176-.136.041-.03.048-.06-.004-.09l-.115.003c-.072-.06-.056-.123-.115-.159-.08-.015-.173-.006-.22-.076-.068-.103-.037-.22-.055-.331-.12-.084-.28-.112-.427-.156-.002.016-.006.03.003.054.052.141-.134.225-.32.254-.05-.035-.093-.07-.089-.124-.013-.058.087-.09.06-.151-.017-.036-.055-.058-.09-.083v-.003c.04-.067.111-.08.188-.084-.002-.016-.004-.032-.002-.05.06-.124.169.009.246-.028l.027-.004c.002-.006.01-.005.01-.012-.035-.052-.049-.094.06-.086m.244-10.76c.007.023-.045.066-.083.083-.09.04-.148.014-.161-.066.048-.002.09-.011.117-.045.047.003.115-.012.127.029m-.66-.252c.139-.027.243-.076.235-.204-.005-.071.043-.122.121-.158l.118.001c.031.018.042.044.044.073-.014.055.006.107.036.155-.042.075.068.052.095.084l.002.001c.036-.058.077-.11.151-.15.076-.04.041-.067-.035-.075l.001-.044h.057c.014-.01.027-.021.043-.029.091-.04.216-.08.26.011.056.114-.13.06-.184.108-.048.107-.18.134-.292.18.032.054.094.056.161.062.094.008.163.042.142.13-.148.115-.32.025-.481.032l-.413.135c.087-.141-.21-.106-.175-.224.015-.047.059-.072.113-.088m1.212.333c.08.024.173.04.17.124-.003.095-.116.1-.201.125-.144.018-.244-.198-.413-.045-.171-.218.156-.18.236-.27.08.001.138.045.208.066m.379.222c.077.01.156.017.224.051.02.015.028.033.023.052-.007-.03.01.04-.018.019-.006-.005-.03.014-.037.029.143.031.343-.027.398.145-.19.011-.241.231-.471.18.008-.05.045-.129.019-.143-.107-.06-.112.081-.204.075-.03-.247-.03-.247-.403-.2-.087-.026-.175-.05-.272-.078.113-.136.288.058.39-.058.028-.054.08-.08.155-.08.065.005.13.004.196.008m.454-.162c.099-.074.196-.144.194-.26.083-.05.171-.053.264-.017.024.01.047.02.069.032.041.025.086.048.095.093-.06.107-.227.12-.31.207.018.12-.132.094-.206.127.034.121.236.115.261.23-.23.007-.353-.19-.585-.178-.015-.127.13-.167.218-.234m.02-.132c.015.006.029.021.032.034.006.022-.005.04-.052.04-.009-.012-.029-.028-.03-.046-.003-.022.016-.041.05-.028m.35 4.365v-.045c.08-.112-.091-.071-.128-.12.125-.026.223-.078.304-.15h.06c.087.165.026.247-.236.315m.529.854h.235c.031.03.031.06 0 .09l-.118.045-.176-.001-.06-.045.119-.09m-.646-.268c.078-.063.156-.063.235 0-.079.077-.157.023-.235 0m.651 2.33c-.217-.024-.372-.031-.521-.059-.029-.005-.035-.01-.05-.017-.011.006-.024.008-.035.016-.114.093-.223.193-.356.198-.096-.013-.034.036-.035.007.057-.004.085-.004.113.006.02.016.025.035.016.056-.07.07-.18.086-.277.12l-.071.016c.105.217.105.217-.365.273l-.117-.002c-.03-.02-.038-.045-.037-.073.018-.058-.046-.098-.055-.15 0-.019.007-.037.019-.054.068-.056.181-.06.244-.122.055-.138.204-.198.356-.256.101-.028.19-.067.235-.166-.115-.061-.298-.051-.365-.171.003-.052.05-.071.104-.085.174.015.33-.051.495-.072.145.026.289.05.407-.05.086-.075.23-.096.259-.23.021-.102.171-.104.277-.029.08.057.126.13.13.216-.001.046-.021.086-.06.12.055.01.105.03.108.094-.046.011-.086.03-.123.052.023.007.048.01.069.02.056.04-.017.113.064.146.014.076-.073.093-.127.13-.022.012-.046.02-.072.024-.057 0-.102-.021-.144-.048-.059-.038-.117-.08-.186-.081-.058.029.008.107.1.17m.525-2.33c-.085-.006-.162.014-.235.045l-.06-.09c.1.01.21-.027.295.044m.183-.337c.058-.136.16-.204.352-.136l.236.09.058.046-.176.09c-.168.052-.325.036-.47-.046v-.044m.463-3.212h.059c.033-.034.061-.073.119-.088.164.18-.198.112-.18.223-.086-.045-.016-.09.002-.135m0-.763l.177-.045c.02.013.031.03.034.05-.008.043-.035.074-.094.085-.03.015-.074.049-.086.043-.066-.033-.017-.088-.031-.133m.393.791c.017-.017.066-.02.101-.022.026 0 .058.01.035.053-.022.006-.055.023-.089.023-.04 0-.075-.024-.047-.054m2.428 2.99c-.16.003-.156-.148-.293-.141.06-.1.078-.28.293-.092-.076.073-.01.154 0 .233m.705 8.484c-.156.243-.313.056-.47 0 .157-.147.313-.063.47 0m-.587-9.39c.107-.134.246-.116.394-.046.137.098-.055.183-.02.277.003.02-.002.038-.015.055-.035.031-.08.05-.13.064-.038.01-.078.014-.118.013-.04-.003-.077-.012-.11-.03-.042-.044-.071-.098-.148-.117-.022-.01-.04-.024-.054-.041.037-.072.005-.115-.093-.13-.055.067-.155.064-.237.09.093-.24.353-.092.53-.135m.502-2.093c.035.011.07.041.037.07-.074.064-.163.058-.26.022.045-.081.109-.126.223-.092m1.263 3.98v-.044c.214-.028.244.226.47.18.037.028.035.058.001.088-.058.068-.118.015-.178.002-.166.04-.16-.137-.293-.136-.035-.03-.035-.06 0-.09m.764.18c.076.051.04.092-.03.117-.099.037-.16-.008-.205-.072.073-.03.15-.05.235-.045m.824-3.774c-.086.17-.261.097-.412.09.126-.06.266-.081.412-.09m.866-.067l.176-.134c.043.058.052.14.178.135.136.045.301-.06.426.047.015.131-.069.207-.23.24-.105-.006-.236-.132-.304.038-.068.054-.132.112-.246.08h-.117c-.006-.077.265-.196-.059-.225l.176-.18m1.309 4.29c.019-.016.038-.016.058 0 .01.059.179.038.118.134-.068-.02-.11.083-.166.031-.045-.042-.059-.108-.01-.165m.042 6.032c-.047.116-.194.172-.316.238-.03.017-.086-.03-.066-.048.096-.086-.023-.287.194-.272.14-.009.21.031.188.082m-.352-.148c-.122.004-.208.032-.22.136l-.118-.045c-.043.05-.111.044-.176.045v-.044c.002-.037.013-.07.059-.09.003.057.042.087.117.09-.06-.035-.014-.096-.057-.135.043-.117.134-.095.233-.046.059.068.118.015.177 0 .27-.134.52-.071.764.045.057.03.058.06.001.09-.098-.046-.196.087-.294.001-.158-.038-.32-.052-.486-.047m.78-5.75c.043.044-.057.088.04.094.06-.015.122-.017.176-.038l.033-.015.035-.01c.026-.003.048.002.068.014l.117.09.001.044-.058.046c-.225.03-.421.106-.589.224-.06.021-.102-.002-.14-.034-.02-.048-.045-.094-.122-.103-.132-.11.029-.154.087-.22.02.003.038-.001.057-.003l.001-.043c.035 0 .05.016.07.028.074-.026.14-.071.223-.074m.236-3.055c.103-.042.203-.04.298.009.004-.05.023-.098.055-.144l.058-.045c.1.105 0 .149-.079.199.124.051.301.004.389.122-.008.07-.076.077-.146.082.063.007.119-.015.178-.026.088-.002.176.006.262.018.075.01.177.016.161.097-.016.084-.088.155-.19.19-.105.036-.127-.04-.174-.125-.035.09-.047.163-.095.223-.044.06-.108.112-.189.136-.158.048-.212.148-.254.259l-.04-.006c-.013-.01-.025-.027-.041-.03-.129-.023-.338.02-.347-.116-.007-.123.203-.099.321-.133.026-.008.048-.023.11-.065-.281.05-.273-.015-.163-.129.048-.048.002-.062-.054-.066.043-.028.093-.054.13-.087.05-.045.107-.102.052-.16-.076-.077-.149.016-.182.037-.099.062-.164.053-.236-.015l.176-.225m1.042.015c.039-.009.071.006.09.046-.018.008-.037.023-.058.025-.034.003-.081.007-.084-.03-.001-.014.03-.037.052-.041m.406 2.296c.032-.016.087.03.067.048-.096.086.023.287-.194.272-.14.009-.21-.03-.189-.082.048-.115.194-.172.316-.238m.256.25l.118.045c.044-.05.112-.044.177-.045v.044c-.002.037-.014.07-.06.09-.002-.057-.042-.087-.117-.089.061.034.015.095.058.134-.043.117-.134.095-.233.046-.059-.067-.118-.015-.178 0-.27.134-.519.071-.763-.045-.058-.03-.058-.06-.001-.09.098.046.195-.086.293 0 .159.037.32.052.486.046.122-.004.209-.032.22-.136m.561 4.104c.04-.013.081-.012.12.003.022.014.037.031.047.051.039.155.146.17.319.105.107-.04.19-.141.34-.096v.224l-.057.001c-.084.028-.094.127-.206.128-.074.012-.153.02-.132.104-.027.072.161.042.104.128l-.002.044c-.037.054-.1.073-.174.078-.079 0-.128-.038-.176-.078-.227-.002-.47.028-.588-.18.039-.037.054-.086.1-.12.07-.058.114-.124.108-.205.032-.083.119-.132.197-.187m.968-.869l.176-.045c.026.035.07.044.117.045.056-.012.07.007.06.045-.238-.035-.215.168-.352.224h-.119c-.031-.028-.057-.06-.065-.097.004-.093.02-.178.183-.172m.352-.63l.117.001c-.002.087-.1.102-.175.135 0-.05-.008-.102.058-.136m.356-.43c-.074.05-.161.015-.238.026-.044-.02-.057-.052-.057-.089.103.001.211-.011.295.063m.285-5.007c.026-.022.06-.03.097-.028.075.013.128-.035.196-.043.025 0 .048.005.07.015.073.052.078.139.16.186.18.042.259.156.335.273.037.077.087.145.218.18.08-.088.066-.228.223-.28.067.002.093.038.11.08-.018.133.068.251.095.378-.034.11-.065.22.065.311.099.066.126.176.303.198.132.016.135.131.036.212-.074.06-.17.096-.282.099-.073-.001-.14-.016-.187-.063-.053-.053-.045-.124-.089-.187-.036.085-.036.173-.099.245-.051.043-.147-.013-.19.05-.1.01-.122-.057-.17-.098-.016-.016-.026-.035-.032-.054 0-.044.028-.078.063-.11.076-.069.171-.133.063-.231-.075-.092.005-.213-.101-.299-.123-.087-.253-.17-.26-.271.017-.074-.048-.026-.009-.028.004.044.005.066-.008.087-.021.015-.045.02-.073.013-.092-.054-.113-.138-.157-.213-.009-.018-.015-.036-.021-.054-.284.08-.284.08-.357-.279l.001-.09m2.004.767c.131.045.367.059.12.223-.095-.058-.202-.008-.305 0-.004-.122.194-.12.185-.223m.326.829l.028-.021h.236c.032.026.06.06.098.074.052.019.156-.034.164.042.01.107-.142.032-.218.11h.31c-.086.072-.3.02-.296.178-.083.002-.144.03-.177.09l-.117-.09c-.096-.086.098-.185-.02-.27-.03-.037-.032-.075-.008-.113m.737 1.96c.094-.036.187-.072.289-.095l.06-.044c.053.055.178.083.119.18-.01.072-.047.133-.117.181l.028-.198c-.107.001-.145.067-.207.107-.086-.048-.123.016-.175.045-.177-.087-.355.122-.532-.002-.044-.055-.182-.038-.174-.133.224-.077.447-.16.704-.134.04.049.032.075.005.093m.702-2.25c.06.017.087.063.136.09.227.134.226.147-.017.223-.087.003-.142-.046-.21-.074-.067-.027-.161.002-.225-.077.098-.059.166-.15.316-.163m0-.135c.052.015.148.053.152.024.034-.23.237-.107.376-.114-.008.089-.154.1-.176.18l-.235.045c-.068.029-.084-.02-.117-.045-.008-.03-.06-.06 0-.09m.59.135h.115c.033.047.144-.014.141.04-.005.086-.161.025-.2.095-.153.03-.207-.039-.235-.135.028-.033.018-.094.089-.094.07 0 .06.062.09.094m.35 8.223v.045c-.128.087-.149.155.057.179.053.071-.011.178.118.227v.188c-.142.023-.119-.121-.234-.1h-.178c-.035-.03-.03-.059 0-.088.056-.083-.055-.118-.081-.176-.004-.02.004-.037.025-.05.066-.051-.007-.13.059-.18.072-.034.106-.181.234-.045m-.785-4.478c-.027-.05.031-.08.08-.105.172.04.24-.08.352-.135.017.092.078.198-.118.225-.034.023-.068.045-.112.054-.075.007-.163.034-.202-.04m-.155-.014c.16.007.273.073.366.166.007.021.002.04-.015.057-.144-.015-.244.027-.295.133-.077.061-.127.143-.233.183l-.06-.046c-.113-.107.135-.167.06-.269-.115-.103-.243-.148-.418-.052.143-.127.18-.333.477-.308.037.047-.185.225.118.136m1.293 6.29c.031.052-.008.085-.055.115-.038.017-.079.027-.122.03-.076.006-.167.017-.223-.02-.23-.155-.493-.128-.76-.099-.177.036-.34.078-.495-.065-.073-.068-.239-.026-.361-.042-.125-.015-.24-.053-.357-.087-.011-.003-.074-.048-.085-.014.007.003.01.009.019.01.022.011.04.026.053.042-.036.072-.005.115.093.13.056-.066.155-.064.237-.089-.092.24-.353.091-.53.134-.093.116-.21.115-.335.069-.021-.002-.044-.004-.064-.004-.084-.05-.05-.117-.042-.18.005-.041-.005-.083.003-.124.012-.031.039-.053.075-.069.097-.03.192-.064.28-.11.15-.08.315-.055.477-.037.075.007.157.022.142.106.006-.114-.166-.173-.154-.287.017-.05.063-.067.125-.064.172.111.342.084.51-.005.081-.004.182-.007.157.08-.032.111-.087.222-.246.277.094.017.206-.18.306-.011.377.116.785.113 1.175.18.016.078.118.09.177.134m.235 2.83c.03-.015.075-.049.086-.043.066.033.018.088.032.133l-.177.046c-.02-.014-.032-.03-.034-.051.008-.043.035-.074.093-.084m-.276-.702c-.016.017-.066.02-.1.022-.027 0-.058-.01-.035-.053.022-.006.055-.022.088-.023.041 0 .076.024.047.054m-.259 1.163c-.047.067-.077.136-.034.213.024.043.036.094-.038.11-.076.017-.091-.042-.116-.079-.023-.033-.034-.069-.046-.105-.03.018-.067.028-.113.029-.003.1.058.185.118.27-.004.056-.042.087-.117.089-.072.024-.143.054-.206-.012-.145-.298-.139-.312.173-.366-.073-.04-.196-.067-.125-.149-.068 0-.116-.058-.188-.046.008.023.03.056.078.11.05.055-.065.095-.085.149-.062.026-.107 0-.152-.027-.114-.1-.043-.186.008-.274-.052-.008-.104-.002-.155.041h-.058c-.066-.014-.086-.053-.094-.099-.008-.02-.01-.042-.006-.064.1-.132.131-.28.174-.427.054-.059.1-.141.208-.042.045.018.045.018.087-.058.012-.01.025-.018.039-.026-.017.004-.034.007-.051.002-.032-.018-.045-.043-.05-.072.016-.095.085-.152.207-.171.229.081.293.243.283.408-.012.176.072.3.232.408.046.06.025.125.027.188m-.232.796c-.102 0-.083-.043-.056-.09.029-.035.049-.08.133-.068l-.077.158m-.833-.167c-.025-.009.021-.077.074-.101.042.05.11.043.174.047-.073.044-.158.086-.248.054m.718.033c-.074.129-.218.1-.353.09.12.114-.01.225-.056.308-.06.108-.23-.031-.352.005-.106 0-.215.02-.31-.035-.024-.028-.026-.058-.01-.09.016-.016.037-.029.062-.037.129-.018.225-.064.3-.153.067-.079.157-.16.308-.088-.026.047-.044.09.058.09.039-.151.24-.115.353-.18.06.03.008.06 0 .09m-1.35 0l-.002-.09.118-.18-.058-.18c.13-.048.18.026.234.09.038.02.058.048.071.08.012.054.04.109-.015.159-.07.024-.12.023-.157.006.016.018.038.035.075.048.073.025.076.098.026.157-.105-.016-.16-.125-.292-.09m-.767-.09c-.025-.034-.068-.043-.116-.045-.013-.01-.018-.02-.014-.029.004-.01.008-.015.012-.015.049-.002.092-.011.12-.046.032-.024.049-.073.116-.045.01.092-.099.198.059.271-.126.046-.167-.005-.177-.09m-.427-6.35c-.04.028-.117.029-.119.089h-.057c-.158.06-.144-.067-.207-.112-.04-.197.198-.226.33-.319.034-.02.068-.037.112-.017.104-.038.232.014.347-.094l-.054.362c-.139-.018-.248.03-.352.09m.071 5.086c-.092.07-.145-.053-.231-.04l.059-.089c.041-.02.073-.006.103.017.018.063.122.072.069.112m-.266-2.669c-.139.008-.041-.108-.143-.166v.055h.001l-.001.003v.178c-.03-.02-.044-.052-.055-.085-.113.16-.361.24-.454.414-.017.031-.067-.025-.077-.06.07-.05-.03-.134.059-.18.19-.018.254-.143.348-.243.016-.017.033-.034.05-.048-.025-.014-.055-.024-.104-.023-.003-.064-.04-.11-.118-.135l.117-.09c.114-.074.243.075.355-.016.048-.022.097-.024.147-.006l.028.022-.001.18c-.033.025-.078.045-.096.075-.025.04.044.12-.056.125m-.73.743c-.085.045-.136.017-.173-.045.063-.05.139-.096.114-.18.049.001.092.01.12.045-.111.042.05.138-.061.18m-.234 1.257l-.06.046c-.067.052-.169-.012-.234.041l-.06.003c-.043-.028-.11-.046-.12-.093-.014.048-.017.097-.056.139.03.18.214.123.353.135v.09c-.114.003-.133.078-.176.135-.058.025-.105.067-.18.065-.06-.01-.137-.035-.134-.073.013-.181-.16-.12-.276-.133-.026-.007-.048-.018-.067-.033-.02-.043.005-.076.036-.107-.045-.131-.222-.088-.325-.143-.048-.027-.077-.06-.075-.108.051-.103.173-.094.305-.1-.102-.036-.198-.053-.239-.127.013-.113.124-.09.213-.084.134.01.263 0 .387-.04.07-.012.134.003.197.022.125.045.261-.026.386.02.07.023.1.07.123.12-.005.07.08.09.12.136l-.118.089m-.708-2.52c-.046.078-.113.134-.233.14.053-.071.119-.129.233-.14m.707-.309l.058.045c-.04.058-.062.131-.174.134-.127.08-.287.087-.437.114-.09-.022-.187-.022-.271-.058-.058-.074.048-.152-.012-.226-.006-.02-.002-.038.014-.054.157-.003.314-.01.454.06.127.063.246-.004.368-.015m0 .762c-.02-.017-.026-.037-.021-.06.022-.055.068-.094.142-.112.088-.016.168 0 .24.042.037.025.059.056.063.095.006-.036 0-.073.034-.103.025-.011.049-.01.072.004.07.166-.08.197-.235.225-.086-.055-.218-.02-.295-.09m-.294-.494l.177.045c-.006.052-.026.117-.099.11-.125-.01-.058-.1-.078-.155m.021 1.066c-.074-.018-.156-.015-.226-.043-.064-.026-.117-.06-.113-.12.006-.07.078-.081.148-.082.149 0 .234-.06.282-.161.027-.039.062-.07.116-.088.12.055.268.094.243.237-.15.073-.19.195-.236.314-.033.024-.07.026-.11.013.031-.08-.045-.068-.104-.07m.861-.886c-.192-.12-.083-.24 0-.359.317.12.072.24 0 .359m.59-8.896c.156-.243.312-.056.469 0-.156.147-.313.063-.47 0m-.68.8c.029-.123-.032-.3.267-.262-.018.053-.13.09-.084.144.05.058.131-.018.201-.01.16.088.275.221.471.271-.124-.015-.235.03-.352.045-.043-.029-.096-.035-.149-.043.02.055-.032.083-.12.107-.138.037-.281.07-.38.161-.033.024-.098.035-.059.088l.061.046-.051.006c-.15.09-.245.252-.49.22-.045-.01-.118-.048-.1-.058.184-.107-.043-.19-.02-.285.054-.06.118-.061.19-.02.026.027.089.044.095.025.098-.284.43-.234.688-.288.026-.006.05-.015.075-.023-.098-.02-.213-.02-.243-.124m-1.713 2.532c.055-.034.142-.045.217-.007.021.014.02.029 0 .044-.077.008-.05.137-.176.09.027-.052-.108-.084-.04-.127m-.448 3.21l-.118-.044c-.061-.035-.015-.096-.058-.135.044-.116.134-.094.234-.046.058.068.117.015.177.001.27-.134.519-.072.764.045.057.03.057.06 0 .09-.098-.047-.195.086-.293 0-.159-.038-.32-.052-.486-.046-.122.004-.209.031-.22.135m-.82 1.871c-.099-.046-.196.086-.294 0-.159-.037-.32-.052-.487-.046-.121.004-.208.032-.219.136l-.118-.045c-.061-.034-.015-.096-.058-.134.043-.117.134-.095.233-.046.059.067.118.014.177 0 .27-.134.52-.071.764.045.058.03.058.06.001.09m-.291 2.778c-.022.056-.074.109-.163.042-.016-.044.01-.09-.013-.136-.101-.022-.142.06-.22.08-.056.014-.121.037-.14-.025-.013-.04-.047-.114.079-.1.02-.023.035-.05.06-.07.188-.147.091-.193-.12-.2-.051-.072-.174-.031-.234-.089v-.09c.098-.103.245.019.352-.046.146.107.221-.087.351-.045l.06.044v.047c-.013.054.099.075.06.135-.114.079.051.087.059.136-.07.088-.12.173.058.223-.093-.004-.158.015-.19.094m-1.24-7.645c.088-.022.17-.057.255-.086.09-.006.116.06.175.088-.153.052-.271.175-.47.136-.026-.052-.083-.106.04-.138m.106.448c-.085.028-.095.126-.206.128-.074.012-.154.02-.133.104-.027.072.162.042.104.128l-.001.044c-.037.054-.1.073-.175.078-.078 0-.128-.038-.176-.078-.226-.002-.469.028-.587-.18.038-.037.054-.086.1-.12.07-.058.114-.124.108-.205.032-.083.118-.132.197-.187.04-.012.08-.012.12.003.021.014.036.031.047.05.038.156.145.17.318.106.107-.04.19-.141.34-.096l.001.224-.057.001m8.966 3.778c-.012.076.036.162-.059.225h-.117c.12-.047.094-.16.176-.225m.118-.134c.168-.053.325-.037.47.045v.044c-.058.136-.16.204-.352.136l-.236-.09-.059-.046.177-.09m.316-8.076l.036-.011c.046-.003.058-.082.11-.042.091.07-.07.111-.051.177l-.117-.045c-.028-.032-.008-.056.022-.079m.448 7.988l.06.044-.118.09h-.235c-.032-.03-.032-.06 0-.09l.117-.046.176.002m.033-3.632c.1-.022.196-.047.157-.154.002-.031.014-.06.046-.08.227.073.094-.14.208-.155.15-.063.246-.168.35-.267.07-.044.133-.095.189-.15.116-.058.17-.207.367-.149.047.023.113.087.087.09-.254.03-.167.216-.263.315l-.06.045c-.065-.023-.119-.027-.118.047-.078.193.092.18.252.179.077 0 .173 0 .186.07.016.08-.085.055-.143.063-.18-.06-.352-.106-.429.097-.006.055-.05.093-.1.128-.047.001-.09.01-.118.044-.191.054-.39.05-.589.045-.043-.05-.11-.043-.175-.044-.019-.092.088-.092.153-.124m.555-.637v.134c-.107.008-.252-.013-.176.135h-.118c-.14-.243.068-.262.294-.27m.94 4.986c.044.028.067.077.115.099.061-.014.04-.074.073-.1.024-.014.053-.015.086-.004.05.037.106.055.165.058.016.004.03.01.045.018.013.01.022.022.027.035l-.132.061c.083.09.214.007.288.111-.084.051-.217-.051-.295.022.025.041.098.028.122.076-.024.012-.05.005-.077-.007-.043.003-.074-.014-.095-.05-.046-.024-.087-.025-.121-.002-.08-.036-.165-.096-.226-.015-.067.01-.115.066-.202.025-.03-.033-.01-.068-.032-.1.012-.05-.028-.107-.006-.155.03-.034.072-.036.127-.003-.027-.047-.09-.036-.117-.077-.028-.07-.018-.11.08-.07.043.016.085.04.13.055.015.006.03.014.044.023m.868 1.66c.016.003.03.01.04.019l-.088.114c.115.043.192-.092.306-.034-.05.084-.216.055-.251.155.042.025.1-.02.143.012-.015.022-.042.027-.072.029-.036.023-.072.022-.107-.001-.052 0-.088.018-.108.055-.088.005-.19-.01-.207.09-.055.04-.071.112-.168.117-.04-.016-.04-.055-.075-.075-.012-.049-.074-.082-.076-.134.01-.045.047-.066.11-.062-.045-.029-.096.01-.138-.013-.058-.049-.067-.089.037-.1.047-.005.095-.004.141-.01.017-.002.034-.002.05-.001.054.003.096.037.15.034.047-.04 0-.083.018-.121.014-.025.04-.039.074-.044.062.009.12-.001.173-.025.016-.004.032-.006.048-.005m.03-7.969c.024-.063.185-.037.134-.176-.053-.141.134-.225.319-.254.051.035.094.07.09.125.012.057-.088.09-.06.15.016.036.055.059.089.083l.001.003c-.056.092-.164.09-.273.09-.088-.001-.181-.006-.197.089.036.051.05.094-.06.085-.077-.057-.075-.124-.044-.195m.167-1.517c.101-.022.196-.061.305-.065.15.032.315-.076.455.03-.025.044-.122.054-.093.125.055.137-.086.065-.18.068.082.09.225.088.275.168-.034.048-.029.078.05.097.066.016.056.051.007.08-.05.175-.229.055-.34.089-.05 0-.1-.006-.143-.023-.073-.029-.192-.029-.184-.119.009-.089.128-.076.201-.1-.042 0-.077.016-.117.014-.027 0-.054-.003-.08-.01-.038-.016-.062-.04-.068-.074.001-.049.03-.107-.08-.112-.065-.004-.147-.001-.147-.074 0-.063.075-.08.139-.094m.466 4.906c.113-.15.262-.1.412-.044-.154-.074-.255.137-.412.044m.735 1.055c.142.04.276.108.44.07.048 0 .091.01.119.044.046.072-.183.092-.06.18.018.024.042.07.051.07.264-.045.085.061.068.112.014.08-.057.134-.109.193-.085.043-.178.06-.28.05-.027-.007-.05-.02-.068-.036-.031-.036-.048-.075-.043-.118.015-.045.033-.09-.037-.12-.059-.02-.073-.141-.18-.043-.114-.024-.253-.05-.23-.16.028-.13.14-.224.329-.242m-.03-2.538c-.114 0-.133-.077-.177-.133.114.002.135.076.178.133m.072.808c.045.08.218-.084.205.05-.011.116-.176.07-.277.087-.038-.046-.124-.066-.118-.135l.177-.045c.004.015.005.03.013.043m.343 1.53l-.005.045c-.045.02-.056.053-.058.089v.09c-.097.046-.186-.003-.278-.015-.026-.004-.052-.01-.077-.019-.02-.031-.004-.056.025-.079.04-.023.063-.053.069-.092.036-.043.06-.053.086-.061.088-.015.172-.017.238.042m.583 1.887c.138.102.131-.131.257-.054.07.23-.242.218-.374.323-.187.077-.26-.007-.308-.127.008-.078-.029-.173.132-.187.08.085.203.001.293.045m-1.939-4.044h.001l-.236-.045.175-.09.357-.223.055.133c-.018.077-.126.052-.176.091-.06.043-.128.053-.205.023l-.031-.024c.048.039.106.074.06.135m.003 1.318c-.06.025-.114-.061-.179.033-.026.005-.044-.005-.055-.028.012-.103-.036-.195.018-.306.054-.052.07-.107.044-.166 0-.03.04-.05.031-.08 0-.004-.026.019-.041.026-.023.007-.044.005-.066.004-.1.077-.145.041-.154-.067.005-.088.003-.18.11-.222.046-.005.05-.045.059-.082.026-.085.086-.057.115-.052.045.008.015.062-.005.1-.01.018-.02.034-.017.053-.006.016-.021.038-.002.043.01.003.028-.012.043-.019.03-.021.046.015.073.008l.016.113c-.001.043-.01.088-.005.129 0 .013-.003.026-.007.04-.023.068-.039.138-.053.208-.008.035-.003.062.025.077.038.02.048-.029.071-.047.099-.075.06-.138.026-.202.003-.037.019-.068.047-.094.064-.033.073.035.107.058.029.04.017.094.001.146-.018.058-.005.1.018.14.013.052.016.103-.03.155-.072.036-.08.144-.152.18-.031.017-.061.038-.093.054-.017.005-.032.003-.047 0-.06.015-.133.054-.125-.061.002-.014.006-.027.012-.04.015-.035.044-.053.07-.074.05-.036.073.023.116.014.015-.005.031-.01.042-.028.004-.04-.003-.011-.013-.013m1.524 3.356c-.104.017-.22.026-.288.094-.088.088-.184.093-.31.06-.123-.03-.228-.023-.164.114-.091.078-.201.079-.302.068.119.068.325-.106.443.05-.03.144-.216.17-.326.168-.185-.004-.38.035-.561-.027-.05-.03-.08-.076-.139-.098-.022-.011-.04-.025-.057-.04-.014-.019-.018-.038-.015-.059.042-.064.125-.069.202-.084.098-.025.155-.107.265-.117.036-.006.072-.008.108-.008.015 0 .033.004.048.001.024-.005.023-.012-.001-.016-.043-.007-.083-.016-.122-.03-.023-.009-.042-.02-.06-.035-.031-.036-.047-.073-.011-.113.107-.09.249-.165.22-.312.033-.063.107-.082.183-.096.068-.013.138-.016.186.032.055.055-.003.095-.036.142.097-.076.195-.15.327-.19.065.002.133-.004.176.046l-.002.088c.047.022-.115.137.073.095.044-.01.087-.003.13-.002-.08-.005-.13-.034-.082-.136.113.003.133.077.175.135.08-.035.141-.026.177.044-.148.033-.2.125-.237.226m-1.998 4.222c-.046-.003-.114.012-.126-.028-.007-.023.044-.066.083-.082.09-.04.148-.015.16.066-.047.001-.09.01-.117.044m-.47-.045c-.08 0-.138-.044-.207-.065-.047-.014-.092-.03-.126-.054-.033.028-.033.057.08.084-.013.118-.083.259.178.271-.024.053-.171.04-.136.092.064.097.167-.02.255-.001-.03.057.07.224-.164.108-.105-.052-.203.024-.308.026 0-.051.006-.105-.064-.137-.14-.058-.297-.016-.443-.044-.02-.012-.039-.026-.055-.04-.068-.063-.168-.03-.25-.05-.026-.005-.048-.014-.069-.026l-.003-.004c-.06.016-.122.018-.187-.008-.024-.009-.046-.02-.068-.032-.042-.025-.087-.048-.095-.092.059-.108.227-.12.31-.208-.018-.12.132-.094.205-.127-.034-.121-.235-.115-.26-.23.146-.004.25.072.367.126.017-.013.04-.028.068-.044-.09-.007-.172-.028-.204-.128.19-.01.241-.231.47-.18-.007.05-.044.13-.018.143.107.06.112-.081.203-.075.03.248.03.248.404.201l.272.077c-.114.136-.288-.057-.39.059-.028.053-.08.079-.155.078-.065-.003-.13-.003-.196-.007l-.012-.001c.012.065.063.07.214.03.028-.006.04-.006.058-.007.041-.024.1-.034.15-.049.144-.017.244.198.413.045.17.218-.156.18-.236.27m-1.646-2.562c.04.02.116.05.112.059-.032.067-.113.017-.17.033l.058-.092m.47.988c-.128-.002-.25-.023-.353-.088.071-.065.026-.166.117-.225.037.123.17.203.237.313m-.354-3.37c.078-.077.157-.023.235 0-.079.063-.157.063-.235 0m-.434 1.11c-.21-.064-.45-.107-.42-.343.001-.02.01-.04.025-.056.115-.04.25-.027.361-.079.142-.007.367-.094.245.153-.027.055.046.053.09.068-.05-.132.017-.207.25-.268v.045c-.08.112.092.072.129.12-.125.026-.224.078-.305.15.01.074.08.15 0 .224H35.079c-.105-.079-.18.004-.258-.013m-.035 1.846c.017.035.04.069.048.105.003.016-.02.036-.032.053-.212-.035-.118-.251-.31-.293-.055.02-.07-.004-.078-.038.08-.133.095-.265.003-.398-.005-.021 0-.04.016-.058.166.007.316-.016.412-.135l.058.18c-.283.197-.323.392-.117.584m-.062-2.508l-.116.091c-.127.008-.187-.035-.176-.133-.033-.024-.037-.053-.021-.084.165-.046.185.118.313.126m-.41-.447c.085.005.162-.015.235-.046l.06.09c-.1-.01-.211.027-.295-.044m.059 2.201c-.085.006-.161-.015-.235-.045l.059.314-.118-.044c-.256-.08-.101-.204-.058-.316.042-.018.073-.003.103.018l.014.028c-.055-.114-.02-.203.113-.267-.064.05-.111.077-.172.042-.182-.063.038-.122.003-.184.038-.052.05-.092-.059-.087l-.123-.135c-.016-.01-.021-.019-.016-.028.378-.066.264.188.371.299v.09c.218.067.078.21.118.315m5.702-5.841c.142-.01.233.043.295.135.067.076.084.152-.004.226-.179-.065-.25-.2-.35-.316l.06-.045m.52.769c.127.057.126.118.03.192-.06.032-.13.025-.198.027h-.059c-.066-.087-.168-.16-.176-.27-.01-.052-.005-.101.06-.134h.057c.09.068.179.136.286.185m-16.158 7.139c.087-.176.21-.03.318-.02.001 0 .006.044-.007.057-.013.013-.055.025-.07.018-.075-.033-.15-.064-.24-.055h-.001c-.01.07-.056.137.072.188.163.066.278.015.399-.054-.005.056-.06.105-.132.142l5.022 1.093c.004-.043.02-.082.07-.114.024-.01.05-.015.078-.014.056.015.083.051.107.09l.032.054c.02.026.049.042.074.062l.174.038c-.13-.124-.098-.322.105-.431.104.002.116.146.253.095.027 0 .051.008.072.021.078.08.055.209.21.25.036.012.067.029.094.05.076.061.115.14.169.212l2.144.466c.135-.016.27-.067.405-.036v.046c.025.035.026.06.02.083l2.282.496c.014-.239.26-.195.463-.202.003.037.015.07.06.09-.004.058-.044.087-.12.088-.021-.017-.053-.018-.079-.028-.001.014.007.024.024.03-.029.036-.095.043-.138.068l.765.167.06-.072c1.62-2.133 2.733-4.552 3.306-7.19.061-.28.114-.561.162-.842-.002-.001-.005 0-.006-.002-.077-.066-.075-.147-.076-.228-.048.014-.097.027-.143.051-.065.034-.145.07-.224.096-.04-.044-.03-.076-.006-.104-.048.07-.084.15-.225.145-.028-.002-.055-.007-.081-.014-.053-.019-.1-.04-.12-.086.07-.137.154-.266.3-.366.081-.006.163.006.245.002.08-.002.144-.008.187-.078.102-.165.138-.208.262-.193.24-1.884.188-3.78-.162-5.655-.005-.027-.013-.053-.018-.08-.005-.001-.01-.005-.014-.006l-.04-.009c-.036 0-.072.002-.107 0-.106.05-.067.211-.26.199.106.04.24.035.32.116-.06.059-.186.08-.177.179-.018.016-.04.026-.067.032-.057.006-.104-.011-.15-.033-.17-.042-.287.075-.44.084-.088.011-.167 0-.228-.055-.014-.018-.02-.039-.019-.06.02-.043.068-.063.117-.081.024-.01.048-.017.072-.025.121-.055.199-.14.229-.24.03-.101.106-.17.208-.225l-3.232-.703c-.09.066-.102.188-.246.226l.175.09c-.047.004-.094.006-.14.013-.044.007-.099.039-.123-.007-.027-.053.04-.073.087-.096-.038-.079.075-.168-.042-.272-.042.123-.053.23-.134.318-.098.057-.196.157-.294 0 .08-.03.139-.075.176-.136-.04-.05-.13-.043-.175-.087.103-.067.211-.112.324-.135l-12.172-2.649c-.02.008-.041.015-.065.015-.027-.005-.035-.025-.05-.04L13.232 13.2c.023.026.045.052.057.083.002.031-.01.06-.032.087-.015.017-.034.032-.055.045-.104.057-.206.034-.307-.004-.08-.029-.139-.08-.209-.118-.096-.024-.089.012-.06.06.049.047.068.121.18.1.164.156.157.176-.1.304-.093 0-.18.044-.274.022-.003-.028-.012-.056-.009-.084.028-.221.018-.245-.211-.186-.18.046-.117-.036-.13-.089.086-.045.178-.09-.001-.134.013-.118.083-.258-.178-.271.02-.045.12-.046.13-.076l-.007-.001c-.04.018-.08.034-.129.022-.002-.02.014-.032.025-.045l-.033-.007c-.035.012-.071.024-.105.017.005-.01.004-.025.004-.04l-2.098-.456-.064.047c-.2-.008-.38.135-.59.045-.046-.124.182-.063.182-.155-.073-.005-.139-.02-.181-.07.004-.002.005-.005.01-.007l-1.547-.337c-.017.023-.035.045-.051.068-.195.277-.38.559-.558.844l.06-.042c.242.018.516-.048.7.12.046.07.02.134-.045.193-.025.039-.091.075-.015.12.04.019.08.037.106.064.009.104.203.113.236.205-.018.08-.135.101-.203.152-.071.053.042.034.051.056.022.011.032.026.031.045.01.03-.098.02-.046.064.06.05.15.053.237.062.077.009.165.02.168.086.003.06-.083.064-.145.077-.198.041-.362.112-.462.237h-.06c-.081-.05-.1-.12-.143-.182-.006-.06-.054-.103-.116-.142-.027-.046-.034-.134-.143-.042-.069.058-.139.084-.243.053h-.119c.06-.061-.037-.05-.07-.068-.023-.02-.035-.042-.048-.064-.039-.055-.18-.078-.118-.165.06-.042.128-.07.203-.088l-.081.02c-.067.012-.129.04-.197.02-.224.402-.429.813-.621 1.23-.006.067-.02.107-.06.125-.145.323-.285.65-.412.981.19-.048.377-.129.585-.045.115.132.115.132.001.18-.197-.04-.404-.056-.587-.134-.194.507-.364 1.024-.513 1.55.067.028.053.122.148.128.029-.003.056-.008.082-.018-.025-.012-.054-.018-.076-.033-.014-.018-.018-.036-.013-.055.039-.054.106-.088.155-.134.022-.013.047-.02.074-.022.027.001.052.007.077.016.126.06.231.147.396.155.106.006.139.066.119.142-.01.018-.025.034-.045.046-.06.022-.124.044-.016.086.101.055.128.116.013.176-.121.064-.221.147-.344.209-.097.046-.074.243-.293.135.056-.067.11-.134.17-.2.038-.042.098-.093.024-.131-.071-.037-.12.025-.157.064-.04.04-.066.087-.098.13-.043-.025-.08-.054-.09-.097-.002-.011 0-.022 0-.034-.007.015-.012.029-.025.042-.228.008-.201.178-.296.27l.06.046c-.034.027-.074.066-.117.057-.013.058-.03.115-.042.172-.574 2.64-.567 5.302.02 7.915l.024.09 19.647 4.276c.083-.04.143-.108.22-.154M16.092 5.182c-.047-.033.02-.056.057-.074l.116.046c-.048.046-.121.064-.173.028m-.888.114c-.018.076-.092.125-.181.143-.112.023-.045.082-.076.119-.242.17-.533.23-.847.242l-.12.063-.006.009-.01-.001c-.875.445-1.714.96-2.514 1.542.008.03.045.05.166.038-.092.108-.065.28-.294.314-.034-.023-.021-.058-.04-.085.008.03.01.061.04.085.036.04.076.132.115.104.035-.025.09-.04.134-.06l.06-.044c.014-.018.021-.04.015-.071-.01-.054.04-.057.087-.063.005-.004.004-.009.01-.012.052-.005.068-.022.03-.057-.001-.02.004-.039.017-.056.084-.098.205-.122.346-.106l.001-.001c-.06 0-.122.001-.163-.044.016-.113.1-.073.177-.046v.079c1.02-.693 2.106-1.272 3.235-1.744l-.03-.012c-.077-.041-.052-.066.029-.075.075-.011.104-.077.177-.09h.117c-.005.02-.012.045-.005.059.206-.082.412-.16.62-.235.01-.046.018-.097.032-.138.011-.01.023-.014.036-.011.047.044.092.054.142.057.005.007.016.007.024.012 1.87-.64 3.844-.985 5.854-.993 1.327-.006 2.67.133 4.006.424.664.144 1.31.335 1.944.548.043-.037.102-.037.162-.037h.294c.043-.054-.025-.066-.058-.091-.052-.08-.07-.13.092-.124-.54-.193-1.092-.36-1.654-.504h-.026l.002-.006c-.224-.058-.445-.123-.672-.173-.262-.057-.524-.095-.786-.14l-.013.004c-.124.032-.236.12-.443.024.106.003.187-.028.263-.063-3.547-.58-7.099-.126-10.29 1.216M24.421 44.495c.01.005.01.01.016.016.002-.029-.012-.046-.03-.059-.011.004-.015.014-.028.016-.154-.01-.3-.007-.354.136-.017.02-.045.023-.071.028.024.004.048.005.072.016h.062c.076-.088.14-.19.333-.153M21.688 44.324l.042-.197-.216-.008.006.01c.043.059.096.112.168.195M36.49 5.917c-.097.021-.166.148-.297.046.093-.04.175-.117.297-.046m3.878 3.863c.027.034.07.044.118.046v.045l-.175.044c0-.05-.007-.101.057-.135m2 4.09c.04.056.067.113.058.178-.065 0-.133.007-.175-.044l.116-.133m.283.03c.09.018.106.065.06.136-.012.016.073.1.121.104.117.01.105-.079.127-.137.253.164-.065.183-.118.269l-.353-.268c.07-.022.063-.124.163-.104m-6.749-8.182c-.008 0-.016-.003-.024-.004.043.034.085.07.127.105.097-.017.19-.061.311-.021-.03.06-.148.071-.17.136 2.494 2.053 4.491 4.637 5.852 7.54.17.015.18.123.187.234 0 .024-.002.048-.006.072-.006.016-.013.03-.02.045.25.561.48 1.132.682 1.714.02.007.042.01.074-.004.086.006.138.04.154.105v.09c-.01.101-.04.174-.095.218.096.293.186.587.269.885.016.004.032.005.047.01.065.028.122.067.196.08.035.003.139-.024.088.019-.175.148.006.208.09.295.075-.025.133-.1.233-.043.1.083.073.176-.013.238-.09.065-.082.148-.125.22-.06.053-.137.064-.223.048-.024-.009-.047-.007-.07-.01.621 2.641.748 5.434.303 8.252l.011.013-.014.011-.013.093c.095.008.188.02.263.075-.04.045-.08.046-.119.046-.039.03-.022.061-.001.093.016.033.065.068.026.1-.045.04-.084-.005-.126-.02-.03-.01-.061-.019-.093-.027l-.01.056c.18.048.334.02.458-.112.02-.011.044-.018.07-.02.036.002.066.015.092.032.015.013.032.013.05.001.038-.055.073-.078.123-.086.069-.003.126.017.18.046.724-4.38.11-8.706-1.549-12.542-.028-.002-.057 0-.082-.015-.085-.078-.072-.148-.015-.213-.637-1.43-1.42-2.79-2.335-4.056-.02.02-.045.036-.08.048-.021-.117-.142-.082-.235-.09.07-.088-.022-.152-.058-.224l.059-.045c.047.008.078.03.116.047-1.034-1.387-2.226-2.658-3.56-3.78-.06.039-.137.06-.198.098-.051.035-.107.064-.177.075-.103.028-.245-.044-.315.071.013.048.009.093-.046.126-.101.025-.191-.026-.289-.025M22.162 44.176l.074-.031c-.12-.001-.24-.01-.36-.013.09.036.174.093.286.044M7.39 38.447c.003-.055.04-.086.114-.089.036.003.056.02.062.046-.035.047-.192.091 0 .142.056.015.044.053.001.08-.07-.053-.213-.064-.177-.179m-.234.09l-.06-.09.235.045c-.043.05-.11.044-.175.044m-.346-.276c-.081-.142-.125-.006-.184.008v-.046c-.022-.015-.037-.032-.047-.052-.009-.033-.005-.064.007-.095.049-.074.074-.164.207-.18.122.034.168.125.246.192.018.015.033.031.047.048.04.07.121.134.07.22l-.06.091c-.178.013-.233-.093-.286-.186m-5.378-9.384c-.043.036-.073-.016-.097-.044l.06-.09c.061.038.085.094.037.134m-.861-9.48c.01-.047-.035-.12.035-.137.071-.018.071.051.082.092-.026.034-.07.044-.117.045m7.04 19.378c.242.108.346-.074.512-.12-1.03-.924-1.965-1.94-2.795-3.036-.026.005-.046.01-.082.015-.067.01-.133.022-.198.034-.024.005-.048.01-.073.013-.057.009-.105.053-.172.026-.13-.107-.292-.12-.469-.089.007-.062.053-.09.131-.09.083 0 .153-.013.162-.09.065-.046.142-.023.216-.023.104.025.21-.013.315-.023-.332-.45-.648-.912-.944-1.387-.104.07-.273.063-.341.177-.017.028-.07.061-.117.038-.069-.035-.052-.085-.013-.132-.182-.117-.235.139-.409.074l.119-.206.172-.138c-.017-.016-.016-.03.006-.042.076-.032.135-.076.173-.136.058-.006.12-.004.174-.02-.791-1.328-1.442-2.738-1.937-4.211-.007.01-.012.02-.02.03-.054.058-.086.04-.099-.022-.014-.058-.1-.08-.118-.136l.002-.089c.033.005.1.025.092-.005-.04-.141-.073-.292-.166-.413-.044-.057-.221-.053-.338-.076-.013-.01-.018-.018-.015-.028.058-.036.072-.07.075-.108.068-.03.051-.102.115-.133.051-.015.134.043.164-.02-.23-.818-.412-1.653-.545-2.5l-.068-.04c-.063-.04.013-.043.052-.062l-.008-.045c-.104-.002-.225-.052-.3.06l-.117-.135c.058-.038.116-.036.174 0 .048-.026.082-.053.162-.039.027.005.045.003.063 0-.011-.078-.023-.156-.033-.235-.043.018-.077.042-.131.05-.14-.059-.211-.152-.235-.27-.005-.035-.047-.06-.05-.096-.007-.072.023-.133.092-.183.023-.01.047-.015.073-.018.071.028.13-.003.189-.031-.196-1.836-.16-3.721.14-5.619-.09.03-.222.023-.327-.029l.002-.089c0-.025.073-.029.03-.065-.025.019-.05.04-.09.02-.052.015-.069.088-.137.064-.052-.019-.033-.062-.003-.095.074-.081-.048-.11-.083-.159-.012-.016-.108.016-.108.05-.002.146-.092.183-.208.188-.036.234-.068.467-.097.7.014-.01.023-.021.046-.029h.061c.243.162.282.36.178.585 0 .015-.001.03-.003.044-.064-.024-.12-.034-.117.044-.083-.027-.157-.059-.226-.095l-.015.174c.016.013.024.029.007.054-.004.009-.009.007-.013.013-.31 3.497.21 6.923 1.422 10.053.02-.093.095-.064.138-.023.052.05.078.114.148.17-.016-.215-.3-.42-.05-.64-.137-.181-.138-.394-.235-.584v-.046c.142-.011.228.06.258.143.03.085.107.034.154.057.243.202.32.447.324.71l.087.034c-.01.04.014.113-.057.103-.052-.006-.062-.031-.062-.061-.048.095-.101.184-.284.044-.016-.02-.01-.047-.038-.063-.002.028.023.049.032.074.05.068.086.138.08.217-.001.056 0 .111-.024.164-.053.053-.183.068-.085.183.053.062-.014.14-.145.11 1.253 2.982 3.136 5.674 5.523 7.874.003-.01.008-.021.009-.032.003-.029.012-.056.034-.08.02-.012.043-.02.068-.026.103-.01.079-.07.083-.12.006-.07.078-.137.143-.107M28.231 40.439c-.02-.024-.036-.05-.023-.092.034-.11-.076-.112-.18-.102-.07.012-.14.01-.203-.008.076.04.12.106.14.188-.076.106-.198.16-.352.179-.047.003-.078.036-.126.038-.094.005-.174-.017-.239-.07-.013-.018-.02-.036-.024-.056.046-.068-.023-.122-.063-.179-1.852.49-3.782.697-5.726.589-.112.196-.255.362-.583.352.04-.056.067-.115.059-.18-.12-.025-.277.04-.352-.088v-.047c.046-.04.095-.07.146-.097-.711-.068-1.423-.167-2.131-.322-1.5-.326-2.926-.846-4.265-1.514-.117.049-.275.042-.394.09.087-.05.176-.099.272-.152l-.078-.04c-.02-.003-.034-.011-.043-.021-.351-.182-.695-.375-1.032-.578-.048.012-.083.038-.06.118.073.103-.023.118-.118.135h-.06c-.04-.035-.148-.017-.13-.097.023-.048.105-.11.071-.139-.11-.097-.106-.168-.058-.23-.29-.182-.57-.377-.847-.575-.072.007-.142.006-.21-.037-.058-.056-.117-.056-.176 0-.038-.001-.086.01-.114-.003-.117-.053-.188-.043-.235-.007.68.52 1.396.993 2.144 1.418.183 0 .358.012.503-.107.041-.033.1-.027.105.021.007.065.166.113.04.19-.048.028-.088.056-.09.104-.077-.037-.136-.032-.187 0 .112.06.228.114.34.172 0-.024-.022-.053-.037-.081.187.044.185.087.137.131 1.391.704 2.876 1.249 4.438 1.589.798.173 1.6.287 2.401.354.142-.01.283-.026.414-.083.135-.06.172.005.172.097.008.01.016.012.024.019.047-.06 0-.119-.001-.178.032-.023.051-.067.114-.043.203.059-.069.123.004.182-.006.025-.016.043-.03.056h.033c.037-.012.075-.031.115-.041.146-.037.213-.197.408-.152.105.074.249-.027.354.046v.09c-.073.03-.15.05-.235.045-.004.013-.02.02-.039.027.102 0 .205.007.307.007 1.947-.008 3.869-.327 5.7-.918" transform="translate(-15 -15) rotate(-30 51.316 13.75) rotate(-12 48.786 1.271)"/>
                        <g transform="translate(-15 -15) rotate(-30 51.316 13.75) rotate(-12 48.786 1.271) translate(12.054 .078)">
                            <mask id="vlrsvsc8mb" fill="#fff">
                                <use xlink:href="#pcsal7ug7a"/>
                            </mask>
                            <path fill="#FF4405" d="M.097 2.603l-.009.134c-.009.002-.012-.001-.019 0 .006.006.008.014.015.02.015.075.006.127.072.162.013.01.02.022.019.035-.09.194.054.348.071.514-.04.03-.047.059-.044.087l.151-.08c-.017.001-.041-.003-.08-.018v-.134l.12.045c-.013.032.006.089-.03.102l.03-.016c.05-.083.095-.11.154-.082 1.542-.798 3.184-1.41 4.89-1.82.009-.048.047-.086.084-.125.016-.015.036-.028.056-.039.121-.01.005-.066.03-.096.065-.094.168-.163.262-.24.098-.02.173.003.225.069.19.03.209.11.119.225.008.013.005.022.01.033.938-.187 1.893-.314 2.86-.375.083-.065.247-.067.305-.15.07.047.129.11.238.112l-.028.011c.183-.007.367-.012.551-.014.002-.007 0-.014.001-.02-.004-.066.166-.107.046-.189-.07-.045-.221-.007-.221-.124.102.015.203-.03.306-.012l-.005-.005-.008-.031c.045-.101-.018-.169-.12-.224-.155-.013-.122-.1-.095-.166.022-.052.027-.103.03-.155C6.54.091 3.12.984.074 2.568l.024.035" mask="url(#vlrsvsc8mb)"/>
                        </g>
                        <path fill="#FF4405" d="M11.566 3.625l-.06-.046c-.073-.058-.06-.117-.003-.177.015-.114.117-.034.178-.047.091.06.048.162.12.228l-.002.087c-.064.039-.106.124-.2.098-.062-.017-.028-.093-.033-.143m.253-.028c.028-.1-.039-.193-.04-.292.133-.254.114-.287-.208-.355-1.133.63-2.21 1.355-3.22 2.17.014.029.034.05.092.018.177-.095.387-.152.539-.275.112-.093.26-.138.412-.178l.117-.001c-.052.17.053.364-.131.514l.074.026c.049.058.153-.005.202.055v.003c.685-.507 1.4-.971 2.14-1.394.056-.093.038-.192.023-.291M8.728 16.12c.05-.071-.027-.116-.067-.168.008.052.025.106.023.156.014.004.027.01.044.012M31.183 20.213l.053-.02-.029.009c-.029.011-.06.014-.09.02.023-.005.044-.005.066-.01M17.407 25.041c-.023.004-.044.004-.067.008l-.054.02.03-.009c.03-.011.06-.014.09-.019M25.262 44.469l-.299-.062c.16-.021.257-.075.238-.208.104-.006.205.002.296.045-.034.102-.169.142-.235.225m1.233-.09c.046-.106.078-.117.12-.051.055.087.342-.007.233.185l-.353-.135m.62.21c-.013-.017-.026-.035-.034-.057-.035-.098.01-.233-.237-.224-.085.004-.045-.139-.096-.192.09-.095.225.135.276-.05-.007-.025-.003-.048-.003-.072-.054-.038-.068.03-.106.053-.05.032-.122.043-.184.062-.072-.027-.051-.101-.115-.133l.055-.09c-.018 0-.035-.003-.052 0h-.006c-.078.045-.045.098-.021.153.031.074.04.144-.097.16-.04-.022-.078-.117-.117 0v.135c.02.046.028.09.017.13.054.01.1.027.1.092-.117-.018-.234.05-.352.003-.033-.092-.174-.072-.235-.135.181-.03.096-.143.117-.224l-.03-.023-.007-.001c-.078-.023-.163-.04-.171-.12v-.001l-.262-.08-.006-.036c.015-.016.036-.015.054-.025-.024.004-.048.009-.073.012.005.018.007.036.025.048-.001.05.007.103-.06.135.01-.097-.133-.077-.176-.133.007-.005.01-.014.016-.021-.303.04-.607.075-.913.103-.041.013-.086.02-.133.023l-.132.003c-.096-.006-.19.02-.285.02.113.039-.02.078-.12.13.227-.061.393.064.593.038-.001-.006.002-.01-.004-.02-.03-.03-.048-.063-.03-.101.029-.022.065-.03.105-.031.076.006.155-.007.23.015l.028.02c.118.114.285-.03.41.044-.019.148-.266.094-.322.228.144.13.412-.002.557.133-.043.05-.111.042-.175.044h-.354.001c-.022.022-.067.05-.06.066.018.04.077.018.119.024-.026.034-.069.043-.117.044-.087.007-.165-.014-.238-.047l.058-.088.072-.012c-.025-.007-.05-.013-.069-.032l-.116-.045c.055.051-.016.12.032.172.027.03.054.06.025.097-.103 0-.176.022-.225.062.115-.025.233-.042.358-.04.153.001.217.042.186.147.776-.082 1.543-.203 2.3-.363M9.752 22.74l-.002.005c0-.003.003-.005.004-.008l-.002.002M28.515 29.805v.002c.038-.03.079-.055.139-.055.026-.002.063.008.056-.03-.12-.047-.138.045-.195.083M16.13 23.834c.03-.022.044-.056.06-.088-.028.044-.06.086-.094.127.019-.01.02-.028.035-.04M9.865 20.308c0 .02-.008.039-.029.055-.035.02-.053.05-.062.084.056-.036.144-.06.09-.14M11.742 23.24c-.063.018-.138.048-.183-.003-.016-.02-.02-.036-.019-.051-.02 0-.041 0-.06-.004-.016.02-.027.04-.022.067.013.071.122.037.194.034.062-.018.125-.033.193-.03-.007-.017-.02-.027-.035-.036-.022.009-.047.014-.068.024M11.647 23.079l-.012.005.004.001.008-.006M35.848 31.29l-.089.056c.058.03.11.064.166.094.096.025.088-.012.06-.06-.04-.038-.071-.082-.137-.09M34.962 36.054c.081-.021.165-.038.246-.06.121.016.246.006.365.03.666-.648 1.293-1.345 1.864-2.099 1.052-1.384 1.893-2.887 2.518-4.49-.021-.094-.052-.189.088-.242.316-.845.578-1.715.773-2.613.084-.386.152-.774.211-1.162-.05.002-.099-.001-.146-.034.052-.05.105-.06.159-.054.015-.102.03-.205.043-.307-.053.053-.067.139-.177.144-.01.008-.03.01-.045.015-.014.093-.025.187-.04.28h.078v.045c-.02.01-.105.006-.045.034.07.033.073.055.044.1l-.06.047c-.015.01-.035.014-.056.017-.047.277-.098.555-.16.833-.592 2.726-1.758 5.183-3.342 7.268l-.217-.047c-.638.833-1.345 1.595-2.101 2.295M2.495 14.204c-.014.019-.032.033-.056.045-.014.001-.024-.004-.036-.005.054.091.067.187.09.28.05-.125.103-.248.156-.37-.054-.019-.102-.039-.142-.062.004.037.007.075-.012.112M1.158 18.407c.272.117.106.177-.015.243-.01.041-.05.071-.072.106.034.013.047-.01.069-.02.04-.023.082-.039.133-.04.005.001.008.006.013.007l.067-.348c-.065.018-.13.032-.195.052M2.393 14.678c.004.025.012.04.021.052l.041-.107c-.027.013-.052.028-.062.055M6.567 23.395c.011 0 .02.003.03.004l-.02-.034c-.007.008-.015.016-.015.024.003.001 0 .005.005.006M13.856 20.649c.01-.01.007-.027.002-.045-.043.008-.087.015-.13.032.038.01.076.014.114.02l.014-.007M11.383 7.945c-.022-.02-.07-.017-.124.01-.104.05-.197.029-.299.027.01-.117.185-.044.211-.127-.04-.095-.203.027-.243-.063-1.113.87-2.134 1.876-3.044 3.002.01.022.014.045 0 .075-.023.03-.055.053-.098.066h-.01l-.04.055.007.004v.09l-.076-.005c-.099.128-.198.256-.294.387l.017.022c-.013 0-.016-.007-.027-.01-.078.107-.163.206-.239.315l-.01.015c.034.034.062.07.062.118-.038.075-.118.08-.197.085-.11.16-.22.321-.324.484.006.027.006.053-.014.077-.014.008-.03.01-.046.015-.09.144-.175.293-.262.44.028-.01.057-.017.084-.027.019-.004.037-.01.054-.015.053-.018.108-.059.161-.073.21-.343.425-.68.654-1.006l.213.046c1.104-1.553 2.418-2.896 3.884-4.007M1.57 14.826c.08.037.15.106.228.151.052.042.106.082.123.141-.012.027-.035.057.033.06.064.034.087.085.1.14 0 .02-.005.039-.014.056-.012.028-.061.026-.073.054.028-.007.055-.004.082.005.036.018.071.055.05.071-.086.069-.104.13-.039.2.1-.299.208-.595.32-.888-.054-.04-.109-.102-.163-.093-.37-.171-.21.092-.248.191l-.164-.101-.026-.024c-.027-.1.04-.174.117-.246.041-.023.089-.022.136-.021.031 0 .059-.01.083-.025.014-.011.03-.022.046-.031.018-.009.037-.013.058-.014.174-.019.096-.133.146-.213-.026-.01-.05-.025-.068-.046-.034-.05-.04-.104-.04-.158.005-.162-.162-.115-.276-.132-.057.016-.116.028-.174.04-.03.003-.052-.004-.07-.016-.113.27-.223.543-.325.82.058.019.11.046.157.08M4.59 18.424l.036-.017c-.004-.036.003-.074-.005-.11l-.031.127" transform="translate(-15 -15) rotate(-30 51.316 13.75) rotate(-12 48.786 1.271)"/>
                        <path fill="#FF4405" d="M.511 18.317c-.014-.141.111-.138.237-.133.08.028.178.01.252.047.076.038.106.09.018.142-.03.018-.074.01-.111.012.047.003.097-.008.135.024-.135.098-.316.052-.47.089-.087-.047-.066-.116-.06-.181m.197.458c.043.015-.001-.025.005-.041.03-.075.101-.125.172-.177.029-.018.063-.028.099-.035-.001-.008-.012-.016-.002-.025.089.005.116-.06.175-.09.023-.08.075-.167-.058-.224.026-.035.069-.044.117-.045.059-.01.118-.005.177 0 .01-.044.016-.087.025-.13.1-.456.217-.902.343-1.343-.06-.001-.153-.044-.224-.058-.037-.016-.07-.033-.048-.071v-.046c-.216.016-.227-.157-.353-.225-.007-.01-.015-.021-.02-.033 0-.002.014-.008.022-.013.19-.05.056-.184.116-.268.156-.039.057-.155.115-.223.085-.048.055-.119.06-.182l.03-.017c.039-.006.073 0 .1.022.033.014.014 0 .021-.008.018-.043.009-.08-.037-.11-.074-.042-.102-.112-.17-.156-.086-.029-.043-.137-.082-.194-.312.882-.578 1.79-.782 2.727-.052.24-.094.48-.138.72.01-.002.016-.008.026-.008.05.01.08.04.113.065-.038.067-.096.074-.161.061l-.03.152c.121-.04.244-.073.389-.025M32.636 31.374c.011.006.024.012.032.019l-.031-.02h-.001M11.46 37.279c-.034-.026-.065-.054-.1-.08-.005.014-.014.027-.03.04-.005.004-.044-.002-.015.02.056.02.103.024.145.02M9.59 35.664c-.009-.009-.02-.017-.028-.026l-.023.01c.018.004.033.012.051.016M23.168.41c.131.011.14-.052.154-.11.085-.006.162.015.236.045.06.026.097-.003.147-.025h.001c.003-.012.002-.021.008-.035.022-.042.051-.078.116-.087.09.036.197.06.253-.019.004-.005 0-.007.003-.011-.29-.021-.577-.034-.865-.043.04.086-.057.194-.053.284M10.88 37.32l.003.001c.008-.007.018-.008.026-.016l-.029.014M43.897 27.038l-.06-.07c.043-.054.096-.141.151-.065.033.046-.043.103-.09.135m.644-.449c-.016-.02-.01-.074-.035-.07-.034.007-.031.067-.057.095-.238.155-.53.073-.764.247-.028 0-.043-.012-.06-.022-.024.191-.045.382-.071.573.008.018.018.034.02.056.004.017.003.034.002.052.006-.022.011-.044.025-.065.227-.011.2-.274.295-.417.006.085-.014.178.04.249.012-.363.284-.46.48-.623.085-.072.176.008.143.182.008-.011.01-.02.016-.03l.018-.147c-.012-.029-.029-.055-.052-.08M23.323 1.057l.119.003c.015-.089.114-.105.201-.135-.033-.023-.07-.044-.105-.065-.143.023-.229.076-.215.197M26.843 43.708l-.012-.015-.006.002.018.013M24.436.615c-.073.083-.139.175-.312.152.05.005.106.004.138.027l.002.002c.106-.005.195-.033.234-.138.018-.02.046-.022.072-.028-.024-.004-.048-.005-.073-.015h-.061zM24.77 1.03c-.147.04-.269 0-.391-.026-.067.06-.06.094-.026.121.094.008.187.012.281.022-.059-.035.048-.071.137-.118" transform="translate(-15 -15) rotate(-30 51.316 13.75) rotate(-12 48.786 1.271)"/>
                        <g transform="translate(-15 -15) rotate(-30 51.316 13.75) rotate(-12 48.786 1.271) translate(7.347 38.764)">
                            <mask id="e8zu2cm29d" fill="#fff">
                                <use xlink:href="#ify3og9idc"/>
                            </mask>
                            <path fill="#FF4405" d="M15.743 6.292c.03-.003.061.002.091.006.219-.007.436-.016.654-.03.015-.043.054-.072.108-.093.026-.01.053-.017.08-.024.021-.008.044-.011.065-.018 0-.04-.01-.08-.06-.113-.01-.012-.005-.022-.007-.033-.016.011-.038.019-.053.032-.044-.008-.074-.039-.12-.045h-.057c-.012.011-.026.016-.042.014-.024-.017-.028-.03-.026-.041-.005 0-.008.005-.014.005-.078-.038-.152-.078-.173-.153.016-.059.09-.072.124-.103-.042.01-.102.035-.158-.005-.097-.058-.14.02-.204.049l-.035.01c-.053.027-.09.092-.177.044-.014.011-.029.015-.044.013-.047-.053-.022-.089.008-.124.033-.03.064-.062.097-.093l-.06.024c-.02 0-.039 0-.057.002l-.064-.049.003-.043c.066-.048.13-.104.232-.046l.003.058.017-.016c.088-.08.199-.13.32-.168-.394.02-.79.03-1.189.027.022.03.028.065.029.1.042.038.022.083.025.126.002.034.012.07-.025.099-.007.063.023.132-.06.18-.158-.029-.333-.004-.471-.09l-.177-.002c-.005-.115-.177-.102-.233-.178.181-.08.095-.116-.036-.16-.06-.02-.15-.04-.143-.109l-.234-.015-.057.015c-.02-.014-.04-.019-.061-.025-.041-.003-.082-.008-.123-.01-.057.007-.113.024-.169.033l-.06.046c-.01-.036-.017-.07-.016-.101-.879-.08-1.761-.208-2.645-.4-1.575-.343-3.07-.856-4.475-1.507-.04.076-.116.097-.234.033-.086-.047-.177-.046-.271-.047-.031-.024-.042-.052-.038-.085.012-.041.039-.075.079-.102.006-.004.008-.009.013-.012C3.897 2.318 2.317 1.252.908.01.88.096.817.166.688.2.547.24.624.276.688.311L.513.448C.415.379.316.385.217.444.193.488.15.514.1.533c1.096.989 2.293 1.874 3.582 2.639.167-.052.367-.054.5-.215.015.202-.148.268-.282.346 1.96 1.132 4.124 1.987 6.451 2.494.607.132 1.213.23 1.818.31-.057-.06.134-.07.042-.134v-.044c.009-.199.141-.32.393-.367.087-.049.167.047.254.007l.118-.045c.021.015.02.03 0 .045-.199.093-.307.224-.293.406l-.178.088-.058.045h-.272c.322.043.644.081.965.11-.001-.016-.006-.03-.005-.047-.006-.198.025-.215.282-.126l-.323-.218v.371c-.072-.024-.099-.06-.074-.123.027-.069.022-.134-.102-.146h-.176c-.038-.071-.017-.131.058-.18h.059c.128-.034.244-.014.352.045l.059.045c.043.079.2.105.175.215l.04.013c.046-.013.092-.028.144-.016.066.033.106.084.158.127.029.034.066.064.097.098l.2.011c-.003-.013-.002-.027.009-.044l.059-.045c.068-.109-.016-.285.237-.313.005.138-.05.313.273.242.048-.01.067.024.064.056-.004.047-.056.053-.104.06-.025.019-.039.037-.045.056.217.005.435.016.651.015.162 0 .322-.009.484-.013l.03-.009" mask="url(#e8zu2cm29d)"/>
                        </g>
                        <path fill="#FF4405" d="M6.3 19.175l.021.022c.014.008.03.01.045.006-.005-.006-.017-.01-.036-.015-.01-.002-.02-.008-.03-.013M6.275 19.151c-.021-.036-.044-.07-.041-.107-.01.037.008.072.041.107M2.393 13.285c.028.074.195.127.06.227-.052-.07-.152-.134-.06-.227m2.41-3.91h.493c-.237.059-.462.174-.729.09.061-.056.143-.081.236-.09m-2.579 3.832c.046.039.085.082.098.135.023.048 0 .107.012.158.026.032.056.059.115.056l.013.026c.044-.001.086.005.118.036.016.038.008.075-.004.11.018.012.034.024.043.043.025.044.038.092.068.135.002.03.016.057.033.083.643-1.477 1.441-2.858 2.372-4.126-.041-.006-.082-.01-.112-.037-.037-.004-.096.002-.108-.013-.05-.066.036-.067.082-.074.111-.017.185-.034.026-.093l-.035-.002c-.037-.005-.066-.018-.084-.044.125-.12.324-.11.48-.12.014 0 .028-.004.042-.005 1.106-1.437 2.383-2.72 3.796-3.827-.245.068-.485.064-.72-.032-.04-.017-.071-.04-.092-.072-.015-.033-.013-.065.007-.095.01-.01.028-.015.041-.024.02-.012.014-.023-.01-.02-.082.007-.163.013-.236-.026-.027-.025-.03-.052-.037-.078-2.512 2.08-4.585 4.71-6.012 7.76.041.045.059.103.104.146M24.095.76c-.004-.002-.005-.006-.009-.009l.002.007.007.002M26.172 43.887c.04-.028.037-.05.024-.07-.055.01-.11.017-.164.026.038.037.057.103.14.044M43.065 31.402c-.004-.01-.07-.006-.107-.009h-.06c-.032-.024-.037-.051-.026-.082.023-.03.06-.047.096-.066-.016.004-.03.01-.048.011-.126.014-.242.007-.317-.087.06-.16.235-.062.354-.09.048 0 .09.01.117.044-.055.01-.045.046-.049.077.01-.01.025-.014.032-.025.042-.03.085-.038.132-.007.015.02.037.03.06.036.505-1.219.91-2.498 1.2-3.831l.01-.046c-.079.018-.154.061-.238.02-.07-.027-.152-.031-.213-.073-.084-.07.064-.177-.054-.241.008.078-.08.12-.116.181-.059-.013-.118-.068-.176 0 .004.048-.021.061-.076.038-.011-.013-.01-.026-.012-.04-.005.038-.008.074.025.108.035.024.079.028.123.03.1-.006.153.063.234.09v.132c0 .107-.072.161-.207.17-.13.007-.08-.133-.195-.14-.028.003-.056.008-.081.018.025.012.053.018.076.034.013.017.018.035.013.054-.039.054-.106.088-.155.134-.01.006-.022.006-.033.01-.116.463-.243.922-.388 1.37.07.017.14.03.205.059-.081.02-.161.044-.243.062-.192.583-.41 1.152-.649 1.709.022.002.045.009.068.026.09-.004.12.063.181.092-.01.121-.156.116-.252.157-.044.01-.092.016-.096.061.028.041.086.026.126.042.048.024.082.057.101.097.062-.073.053-.2.237-.178l-.12.133-.117.045c.005.01.014.018.016.03-.007.021-.013.05-.036.059-.207.073-.36.195-.509.319-.395.821-.838 1.612-1.327 2.366l.033.012.177-.134c.078.006.195-.008.153.092-.026.06-.102.041-.153-.002-.034.015-.047.039-.053.065.004-.002.006-.006.01-.007.182-.027.307.072.454.12.002.038.014.07.06.091.045-.024.11.037.157-.032.028-.04.091-.05.154-.026.589-.944 1.11-1.94 1.558-2.981-.017-.012-.035-.04-.056-.097M25.847 43.874l-.048.007c.015.002.029 0 .044.002 0-.003.004-.006.004-.01M26.887 1.067c.057-.007.093-.119.138-.182l.116-.002c.014-.011.027-.014.04-.01-.053.111-.124.209-.024.326.022.025-.035.04-.074.045-.048.028-.085.07-.152.08-.055.007-.103-.003-.14-.035h-.002c0-.08-.15-.191.098-.222m.548-.049l.118.001-.059.09c-.084-.023-.19-.009-.233-.091h.174m.941.27l.119.09c-.1.045-.073.162-.219.15-.031-.003-.059-.003-.057-.03.004-.091.03-.173.157-.21m2.41.744c.083.01.05.07.061.11l-.119-.045c.006-.03.014-.07.058-.065M24.581.324c-.026.01-.053.017-.08.023-.022.008-.044.012-.065.019 0 .04.01.079.06.112.01.012.005.022.006.033.017-.01.039-.018.053-.031.045.008.075.038.12.044h.057c.013-.01.027-.016.042-.014.025.017.029.03.026.041.006 0 .009-.005.014-.005.078.038.152.078.174.153-.017.059-.09.072-.124.103.042-.01.102-.035.158.006.097.057.14-.021.203-.05l.036-.009c.053-.028.09-.092.177-.045.014-.01.028-.015.044-.012.047.053.021.088-.008.123l-.098.093.062-.024c.018 0 .037 0 .056-.002l.064.05-.003.042c-.066.048-.13.104-.232.046l-.004-.058c-.005.006-.012.01-.017.017-.09.08-.203.133-.329.171.043-.006.086-.011.13-.01.121.011.242.024.321.107.546.076 1.092.165 1.64.284.21.046.415.1.623.153-.02-.069-.118-.116-.109-.187.09-.142.187-.275.444-.21.027.035.07.045.119.046-.006.104-.123.158-.179.246.05.042.156.042.18.113-.004.022-.016.04-.034.058-.015.01-.033.017-.05.024.604.162 1.194.352 1.772.561.02-.041.046-.084.03-.12.011-.075.048-.146.048-.223.127-.087.276.014.408-.029.064-.022.12-.033.12.045.093.037.216.019.292.09-.024.136-.017.278-.116.403-.017.049-.06.073-.11.09 1.856.743 3.568 1.727 5.104 2.911.013 0 .025-.005.038-.006.212.005.151-.123.173-.21-.021-.043-.037-.088-.053-.133-.006-.047.039-.067.079-.09-.008-.088-.09-.091-.177-.09.044-.05.113-.044.178-.045.12-.036.282.014.361-.104.016 0 .024-.006.036-.01-2.239-1.738-4.837-3.072-7.707-3.873-.047.006-.092-.008-.137-.017-.02.02-.04.04-.081.048-.014-.007-.021-.02-.03-.03l-.085.032c-.021-.015-.02-.03 0-.045.021-.01.037-.022.057-.033-.006-.014-.017-.025-.026-.037-.32-.085-.643-.166-.97-.237-.859-.187-1.716-.316-2.569-.401-.012.049-.055.08-.112.103M41.016 35.032l-.06-.001-.057-.133c.065 0 .133-.006.177.043-.045.02-.058.054-.06.09m-3.116 3.46c-.23-.106.091-.075.057-.133h.061c.006.067-.08.088-.118.134m-3.406 2.513c.03.027-.049.084-.122.093-.086-.001-.168.002-.176.09-.086-.049-.123.017-.176.045-.01-.094-.01-.186.06-.27l-.06-.046.116-.136c.01.004.02.01.031.013.033.028.053.06.051.098.036-.018.074-.032.108-.051.076-.026.152-.05.234-.017.024.03.024.06.002.09.021.046-.18-.011-.068.09m6.667-6.028c-.11-.077-.232-.147-.184-.289.01-.029-.056 0-.087 0-.08-.007-.107-.055-.138-.1-.055-.06-.156-.102-.112-.194.002-.001.004-.001.005-.003-.027-.02-.06-.03-.1-.031-.005.003-.01.002-.017.005-.662 1.013-1.404 1.96-2.217 2.838.01.008.019.016.023.023.006.031-.033.039-.081.041l-.101.112.043.035-.107.033c-1.597 1.672-3.451 3.07-5.481 4.154.013.004.027.006.04.011.146.129.01.17-.114.215-.074.024-.163.023-.216.08-.076.07-.155.136-.287.068-.064.002-.131-.007-.174.043l-.118.046c-.01-.006-.009-.013-.013-.019-1.215.58-2.485 1.046-3.797 1.39-.005.012-.004.024-.018.033 0 .005-.003.009-.003.013.026.086-.048.114-.116.146.004.023.004.048-.003.08.01.03.062.06-.001.089-.053.035-.134.037-.173.088l-.06.046c-.03-.034-.131-.008-.147-.048-.004.04.002.085.03.138v.045c.008.08-.041.117-.102.144.02.025.08.047.043.08l-.06.045c-.078.008-.028.066-.061.091-.157.031-.11.092-.076.15 5.727-1.233 10.8-4.68 14.05-9.585-.024-.002-.048-.002-.07-.013M23.655 1.07l.095.008c-.001-.004 0-.01-.002-.014-.03-.002-.062.002-.093.007M35.22 9.296c.056.05.013.154.15.158.088-.039-.002-.098.028-.143.06-.094.014-.177-.03-.259.026.056.04.116.048.178-.015.043-.042.08-.089.108-.054.014-.08-.014-.106-.042M23.894.459c-.028 0-.049-.004-.071-.007.01.026.023.052.036.078.06.005.117.018.17.042l-.045.068c.015.006.024.015.043.02-.007.035 0 .056.013.072l.044.017c-.055-.05.016-.12-.032-.172-.027-.03-.054-.06-.025-.097.103 0 .176-.021.224-.062-.115.025-.232.042-.357.04M27.77 40.215c-.008-.006-.018-.004-.026-.01-.007-.008-.008-.015-.012-.022l-.054.018c.035 0 .065.006.092.014M33.822 7.975c.12-.031.238-.055.367-.046l-.033-.027c-.122.031-.27.002-.382.053-.008.037.03.017.048.02M34.427 36.998l-.063.03c-.064.053-.117.112-.204.144-.06.03-.142.023-.198.062-.097.007-.195.062-.292 0-.014-.028-.018-.052-.018-.074-1.528 1.168-3.221 2.086-5.018 2.725.018.003.035.009.055.007.068-.007.05.045.049.082-.008.145-.134.244-.242.345-.075.07-.045-.09-.137-.05.003.042-.017.089-.017.133 2.252-.742 4.36-1.902 6.199-3.44-.037.013-.074.025-.114.036M33.978 36.901l-.189.15c.056-.054.28-.012.19-.15M34.42 36.636c.028.039-.007.066-.032.095.127.004.222-.144.343-.063.056.037.033.084-.002.13.021-.02.042-.038.064-.056-.065-.14.07-.184.251-.22l.013-.01c-.245.032-.4.2-.638.124M29.546 5.645l.026.01c.922.386 1.804.84 2.64 1.362.013-.008.024-.017.038-.023.094-.04.188-.01.287.001.03.014.004-.014 0-.014-.17-.014-.155-.08-.077-.164.036-.065.015-.1-.023-.126l-.025-.015c-.043-.022-.095-.037-.132-.061l-.023-.025c0-.002.003-.004.003-.007-.877-.535-1.8-1.001-2.767-1.39-.085.034-.15.08-.117.184-.082.006-.172-.018-.236.045l-.236-.046c-.033-.04-.087-.033-.135-.038.263.095.52.2.777.307M43.525 17.338c-.005-.005.002-.01 0-.015-.004.025-.005.051-.007.077.033-.001.058-.007.007-.062M34.886 9.008c.028-.018.062-.027.096-.037.082-.03.116-.137.247-.09.063.045.103.098.132.155-.011-.02-.022-.041-.03-.062-.013-.034-.04-.066-.049-.1-.279-.26-.567-.51-.862-.754l-.016.018c-.028.03-.056.06-.087.089-.088.11-.186-.026-.277.008-.02.01-.037.025-.055.038.303.244.601.495.889.757.003-.008.006-.016.012-.022" transform="translate(-15 -15) rotate(-30 51.316 13.75) rotate(-12 48.786 1.271)"/>
                        <path fill="#FF4405" d="M30.1 2.329c-.019.027-.043.053-.064.08.087.032.174.063.26.097.019-.05.115-.082.057-.149-.045-.214-.154-.098-.253-.028M23.15 1.054c-.042-.008-.084-.017-.124-.036.035-.102.17-.142.236-.224l.253.052c-.037-.023-.066-.05-.092-.078-.081-.002-.16-.01-.218-.065.035-.04.088-.041.14-.042-.081-.083-.21-.088-.36-.053-.115.033-.248-.025-.357.04-.048.04-.04.116-.138.125-.024 0-.041-.009-.06-.015.056.033.142.036.186.08-.165.029-.113.123-.117.2.217 0 .434.009.652.016M40.556 18.639c.078-.057.166-.04.253-.03-.169-.774-.375-1.534-.634-2.269-.052.018-.102.053-.155.003 0-.084.046-.116.106-.128-.29-.807-.63-1.59-1.022-2.34-.011.011-.026.02-.028.04l-.178-.046c.017-.064.078-.086.144-.104-.093-.174-.194-.342-.291-.512-.03.008-.058.008-.086-.012-.068-.085-.276.027-.276-.082 0-.185.165.025.256-.04l.022-.013c-.707-1.209-1.543-2.33-2.493-3.344-.038-.009-.075-.02-.11-.039-.058-.019-.113-.07-.18-.012-.028.031-.054.062-.096.082-.039.001-.069.012-.094.027 2.34 2.422 4.004 5.492 4.74 8.926.045-.013.087-.041.122-.107M33.02 7.22c-.034.025-.07.026-.11.007-.028-.11-.116-.11-.22-.068.056.031.136.017.2.046.061.078-.022.15-.02.226l-.013.004c.163.112.324.228.483.345.104-.065.086-.145.066-.239-.002-.049.084-.082.096-.131-.105-.076-.21-.152-.316-.226-.036.057-.092.066-.166.036M41.082 24.943l.012.001c.078-.612.126-1.226.143-1.84-.057-.037-.113-.076-.184-.094-.005-.003-.007-.008-.011-.01-.006.254-.014.509-.03.765.054.025.11.047.18.034v.045c-.048.001-.09.01-.118.045-.02-.01-.046-.017-.071-.024-.025.35-.06.7-.106 1.052l.016.004c.053.013.117-.007.169.022M41.049 22.783l.018-.027c.086-.08.042-.168.022-.254-.005-.044.007-.084.052-.114.042-.019.073-.042.1-.068-.014-1.06-.114-2.118-.31-3.17l-.004-.017c-.01.003-.017.01-.029.012-.069-.01-.124-.032-.134-.091.01-.012.02-.022.03-.028l-.03.024c-.031.035-.014.107-.061.129l.033.007c.22 1.173.326 2.377.313 3.597M28.645 5.296l.049.016c-.016-.007-.031-.015-.049-.016" transform="translate(-15 -15) rotate(-30 51.316 13.75) rotate(-12 48.786 1.271)"/>
                    </g>
                    <text fill="#FFF" font-family="Cafe24Ohsquare, Cafe24 Ohsquare" font-size="10" font-weight="bold" transform="translate(-15 -15) rotate(-30 51.316 13.75)">
                        <tspan x="15.515" y="30.866">MISS</tspan>
                    </text>
                </g>
            </g>
        </g>
    </g>
</svg>
