<svg xmlns="http://www.w3.org/2000/svg" xmlns:xlink="http://www.w3.org/1999/xlink" width="45" height="45" viewBox="0 0 45 45">
    <defs>
        <path id="7n225a5nwa" d="M0.038 0.052L22.947 0.052 22.947 23 0.038 23z"/>
    </defs>
    <g fill="none" fill-rule="evenodd">
        <g>
            <g>
                <circle cx="22.5" cy="22.5" r="22.5" fill="#EDF4FF"/>
                <g>
                    <path fill="#056BFF" d="M2.5 7.95c-.83 0-1.505-.77-1.505-1.715 0-.014.027-1.367 1.48-2.812.176.199.406.473.635.789.577.797.895 1.517.895 2.026 0 .944-.675 1.711-1.505 1.711m.34-5.632L2.523 2l-.339.295C-.017 4.21-.002 6.162 0 6.238 0 7.761 1.122 9 2.5 9 3.88 9 5 7.761 5 6.238c0-.744-.356-1.622-1.06-2.61-.519-.73-1.041-1.254-1.1-1.311" transform="translate(8 11)"/>
                    <g transform="translate(8 11) translate(5)">
                        <mask id="k3cy6s5s1b" fill="#fff">
                            <use xlink:href="#7n225a5nwa"/>
                        </mask>
                        <path fill="#056BFF" d="M13.784 14.946c.22-.223.22-.584-.002-.806-.222-.222-.581-.22-.802.002l-1.705 1.72-2.433-2.434 1.705-1.721c.22-.223.22-.584-.002-.806-.221-.222-.581-.22-.802.002l-1.704 1.72-2.433-2.434L7.31 8.468c.22-.223.22-.585-.002-.806-.221-.222-.581-.222-.802.001L4.802 9.384 3.758 8.34l-.46-5.024 5 .44 10.374 10.382-4.54 4.583-2.053-2.054 1.705-1.72zm8.996 2.902c-.107-.107-.249-.166-.4-.166h-.001c-.152 0-.294.06-.401.168l-1.67 1.687-.038-.042-2.664-2.665 3.438-3.47c.107-.109.166-.252.165-.404 0-.152-.06-.296-.167-.403-.222-.222-.581-.221-.802.002l-.767.775L8.853 2.703l-.046-.046-5.77-.509c-.034-.003-.07-.004-.105-.003L1.006.217C.784-.004.424-.003.203.22.097.327.038.47.038.623c0 .152.06.295.167.402l1.927 1.929c-.001.035 0 .07.003.105l.526 5.733.006.065 10.665 10.672-.768.775c-.22.223-.22.585.002.807.108.107.249.161.402.166.151 0 .293-.06.4-.168l3.438-3.471 2.663 2.665c.014.014.027.026.042.038l-1.671 1.687c-.22.222-.22.584.002.806.107.107.249.166.4.166h.001c.152 0 .294-.06.4-.168l4.139-4.178c.22-.223.22-.584-.002-.806z" mask="url(#k3cy6s5s1b)"/>
                    </g>
                </g>
            </g>
        </g>
    </g>
</svg>
